# 3ds Max Wavefront OBJ Exporter v0.97b - (c)2007 guruware
# File Created: 23.02.2019 13:09:01

mtllib Track Indicator Sign Version.mtl

#
# object Cylinder001
#

v  0.4079 0.0000 0.6972
v  8.0753 0.0000 -2.0935
v  8.5674 0.0000 0.6972
v  6.6585 0.0000 -4.5477
v  4.4876 0.0000 -6.3692
v  1.8248 0.0000 -7.3384
v  -1.0090 0.0000 -7.3384
v  -3.6719 0.0000 -6.3692
v  -5.8427 0.0000 -4.5477
v  -7.2596 0.0000 -2.0935
v  -7.7517 0.0000 0.6972
v  -7.2596 0.0000 3.4879
v  -5.8427 0.0000 5.9421
v  -3.6719 0.0000 7.7636
v  -1.0090 0.0000 8.7328
v  1.8248 0.0000 8.7328
v  4.4876 0.0000 7.7636
v  6.6584 0.0000 5.9421
v  8.0753 0.0000 3.4879
v  15.7428 0.0000 -4.8843
v  16.7270 0.0000 0.6972
v  12.9090 0.0000 -9.7925
v  8.5674 0.0000 -13.4355
v  3.2417 0.0000 -15.3740
v  -2.4259 0.0000 -15.3740
v  -7.7517 0.0000 -13.4355
v  -12.0933 0.0000 -9.7925
v  -14.9271 0.0000 -4.8843
v  -15.9112 0.0000 0.6972
v  -14.9271 0.0000 6.2787
v  -12.0933 0.0000 11.1869
v  -7.7517 0.0000 14.8300
v  -2.4259 0.0000 16.7684
v  3.2416 0.0000 16.7684
v  8.5674 0.0000 14.8300
v  12.9090 0.0000 11.1869
v  15.7428 0.0000 6.2787
v  15.7428 22.8065 -4.8843
v  16.7270 22.8065 0.6972
v  12.9090 22.8065 -9.7925
v  8.5674 22.8065 -13.4355
v  3.2417 22.8065 -15.3740
v  -2.4259 22.8065 -15.3740
v  -7.7517 22.8065 -13.4355
v  -12.0933 22.8065 -9.7925
v  -14.9271 22.8065 -4.8843
v  -15.9112 22.8065 0.6972
v  -14.9271 22.8065 6.2787
v  -12.0933 22.8065 11.1869
v  -7.7517 22.8065 14.8300
v  -2.4259 22.8065 16.7684
v  3.2416 22.8065 16.7684
v  8.5674 22.8065 14.8300
v  12.9090 22.8065 11.1869
v  15.7428 22.8065 6.2787
v  15.7428 45.6130 -4.8843
v  16.7270 45.6130 0.6972
v  12.9090 45.6130 -9.7925
v  8.5674 45.6130 -13.4355
v  3.2417 45.6130 -15.3740
v  -2.4259 45.6130 -15.3740
v  -7.7517 45.6130 -13.4355
v  -12.0933 45.6130 -9.7925
v  -14.9271 45.6130 -4.8843
v  -15.9112 45.6130 0.6972
v  -14.9271 45.6130 6.2787
v  -12.0933 45.6130 11.1869
v  -7.7517 45.6130 14.8300
v  -2.4259 45.6130 16.7684
v  3.2416 45.6130 16.7684
v  8.5674 45.6130 14.8300
v  12.9090 45.6130 11.1869
v  15.7428 45.6130 6.2787
v  8.0753 45.6130 -2.0935
v  8.5674 45.6130 0.6972
v  6.6585 45.6130 -4.5477
v  4.4876 45.6130 -6.3692
v  1.8248 45.6130 -7.3384
v  -1.0090 45.6130 -7.3384
v  -3.6719 45.6130 -6.3692
v  -5.8427 45.6130 -4.5477
v  -7.2596 45.6130 -2.0935
v  -7.7517 45.6130 0.6972
v  -7.2596 45.6130 3.4879
v  -5.8427 45.6130 5.9421
v  -3.6719 45.6130 7.7636
v  -1.0090 45.6130 8.7328
v  1.8248 45.6130 8.7328
v  4.4876 45.6130 7.7636
v  6.6584 45.6130 5.9421
v  8.0753 45.6130 3.4879
v  0.4079 279.3270 0.6972
v  8.5674 279.3270 0.6972
v  8.0753 279.3270 -2.0935
v  6.6585 279.3270 -4.5477
v  4.4876 279.3270 -6.3692
v  1.8248 279.3270 -7.3384
v  -1.0090 279.3270 -7.3384
v  -3.6719 279.3270 -6.3692
v  -5.8427 279.3270 -4.5477
v  -7.2596 279.3270 -2.0935
v  -7.7517 279.3270 0.6972
v  -7.2596 279.3270 3.4879
v  -5.8427 279.3270 5.9421
v  -3.6719 279.3270 7.7636
v  -1.0090 279.3270 8.7328
v  1.8248 279.3270 8.7328
v  4.4876 279.3270 7.7636
v  6.6584 279.3270 5.9421
v  8.0753 279.3270 3.4879
# 110 vertices

vn 0.0000 -1.0000 -0.0000
vn 0.6975 -0.6701 -0.2539
vn 0.7423 -0.6701 0.0000
vn 0.5687 -0.6700 -0.4772
vn 0.3712 -0.6701 -0.6428
vn 0.1289 -0.6701 -0.7310
vn -0.1289 -0.6700 -0.7311
vn -0.3712 -0.6700 -0.6429
vn -0.5687 -0.6700 -0.4772
vn -0.6976 -0.6700 -0.2539
vn -0.7423 -0.6700 -0.0000
vn -0.6975 -0.6701 0.2539
vn -0.5686 -0.6701 0.4771
vn -0.3711 -0.6701 0.6429
vn -0.1289 -0.6700 0.7311
vn 0.1289 -0.6700 0.7311
vn 0.3712 -0.6700 0.6429
vn 0.5686 -0.6701 0.4772
vn 0.6975 -0.6701 0.2539
vn 0.9397 0.0000 -0.3420
vn 1.0000 0.0000 0.0000
vn 0.7660 0.0000 -0.6428
vn 0.5000 0.0000 -0.8660
vn 0.1736 0.0000 -0.9848
vn -0.1736 0.0000 -0.9848
vn -0.5000 0.0000 -0.8660
vn -0.7660 0.0000 -0.6428
vn -0.9397 0.0000 -0.3420
vn -1.0000 0.0000 -0.0000
vn -0.9397 0.0000 0.3420
vn -0.7660 0.0000 0.6428
vn -0.5000 0.0000 0.8660
vn -0.1736 0.0000 0.9848
vn 0.1736 0.0000 0.9848
vn 0.5000 0.0000 0.8660
vn 0.7660 0.0000 0.6428
vn 0.9397 0.0000 0.3420
vn 0.6975 0.6701 -0.2539
vn 0.7423 0.6701 0.0000
vn 0.5687 0.6700 -0.4772
vn 0.3712 0.6701 -0.6428
vn 0.1289 0.6701 -0.7310
vn -0.1289 0.6700 -0.7311
vn -0.3712 0.6700 -0.6429
vn -0.5687 0.6700 -0.4772
vn -0.6976 0.6700 -0.2539
vn -0.7423 0.6700 -0.0000
vn -0.6975 0.6701 0.2539
vn -0.5686 0.6701 0.4771
vn -0.3711 0.6701 0.6429
vn -0.1289 0.6700 0.7311
vn 0.1289 0.6700 0.7311
vn 0.3712 0.6700 0.6429
vn 0.5686 0.6701 0.4772
vn 0.6975 0.6701 0.2539
vn 0.6232 0.7484 -0.2269
vn 0.6632 0.7484 0.0000
vn 0.5081 0.7484 -0.4264
vn 0.3316 0.7484 -0.5744
vn 0.1152 0.7484 -0.6532
vn -0.1152 0.7484 -0.6532
vn -0.3316 0.7484 -0.5744
vn -0.5081 0.7484 -0.4264
vn -0.6233 0.7484 -0.2269
vn -0.6633 0.7484 -0.0000
vn -0.6233 0.7484 0.2268
vn -0.5080 0.7484 0.4263
vn -0.3316 0.7484 0.5744
vn -0.1152 0.7484 0.6532
vn 0.1152 0.7484 0.6532
vn 0.3316 0.7484 0.5744
vn 0.5081 0.7484 0.4263
vn 0.6232 0.7484 0.2268
vn 0.0000 1.0000 -0.0000
# 74 vertex normals

vt 0.5000 0.0000 0.0000
vt 0.8056 0.0000 0.5000
vt 0.7500 0.0000 0.5000
vt 0.8611 0.0000 0.5000
vt 0.9167 0.0000 0.5000
vt 0.9722 0.0000 0.5000
vt 0.0278 0.0000 0.5000
vt -0.0278 0.0000 0.5000
vt 0.0833 0.0000 0.5000
vt 0.1389 0.0000 0.5000
vt 0.1944 0.0000 0.5000
vt 0.2500 0.0000 0.5000
vt 0.3056 0.0000 0.5000
vt 0.3611 0.0000 0.5000
vt 0.4167 0.0000 0.5000
vt 0.4722 0.0000 0.5000
vt 0.5278 0.0000 0.5000
vt 0.5833 0.0000 0.5000
vt 0.6389 0.0000 0.5000
vt 0.6944 0.0000 0.5000
vt 0.8056 0.0000 1.0000
vt 0.7500 0.0000 1.0000
vt 0.8611 0.0000 1.0000
vt 0.9167 0.0000 1.0000
vt 0.9722 0.0000 1.0000
vt 0.0278 0.0000 1.0000
vt -0.0278 0.0000 1.0000
vt 0.0833 0.0000 1.0000
vt 0.1389 0.0000 1.0000
vt 0.1944 0.0000 1.0000
vt 0.2500 0.0000 1.0000
vt 0.3056 0.0000 1.0000
vt 0.3611 0.0000 1.0000
vt 0.4167 0.0000 1.0000
vt 0.4722 0.0000 1.0000
vt 0.5278 0.0000 1.0000
vt 0.5833 0.0000 1.0000
vt 0.6389 0.0000 1.0000
vt 0.6944 0.0000 1.0000
vt 0.8056 0.5000 1.0000
vt 0.7500 0.5000 1.0000
vt 0.8611 0.5000 1.0000
vt 0.9167 0.5000 1.0000
vt 0.9722 0.5000 1.0000
vt 0.0278 0.5000 1.0000
vt -0.0278 0.5000 1.0000
vt 0.0833 0.5000 1.0000
vt 0.1389 0.5000 1.0000
vt 0.1944 0.5000 1.0000
vt 0.2500 0.5000 1.0000
vt 0.3056 0.5000 1.0000
vt 0.3611 0.5000 1.0000
vt 0.4167 0.5000 1.0000
vt 0.4722 0.5000 1.0000
vt 0.5278 0.5000 1.0000
vt 0.5833 0.5000 1.0000
vt 0.6389 0.5000 1.0000
vt 0.6944 0.5000 1.0000
vt 0.8056 1.0000 1.0000
vt 0.7500 1.0000 1.0000
vt 0.8611 1.0000 1.0000
vt 0.9167 1.0000 1.0000
vt 0.9722 1.0000 1.0000
vt 0.0278 1.0000 1.0000
vt -0.0278 1.0000 1.0000
vt 0.0833 1.0000 1.0000
vt 0.1389 1.0000 1.0000
vt 0.1944 1.0000 1.0000
vt 0.2500 1.0000 1.0000
vt 0.3056 1.0000 1.0000
vt 0.3611 1.0000 1.0000
vt 0.4167 1.0000 1.0000
vt 0.4722 1.0000 1.0000
vt 0.5278 1.0000 1.0000
vt 0.5833 1.0000 1.0000
vt 0.6389 1.0000 1.0000
vt 0.6944 1.0000 1.0000
vt 0.8056 1.0000 0.5000
vt 0.7500 1.0000 0.5000
vt 0.8611 1.0000 0.5000
vt 0.9167 1.0000 0.5000
vt 0.9722 1.0000 0.5000
vt 0.0278 1.0000 0.5000
vt -0.0278 1.0000 0.5000
vt 0.0833 1.0000 0.5000
vt 0.1389 1.0000 0.5000
vt 0.1944 1.0000 0.5000
vt 0.2500 1.0000 0.5000
vt 0.3056 1.0000 0.5000
vt 0.3611 1.0000 0.5000
vt 0.4167 1.0000 0.5000
vt 0.4722 1.0000 0.5000
vt 0.5278 1.0000 0.5000
vt 0.5833 1.0000 0.5000
vt 0.6389 1.0000 0.5000
vt 0.6944 1.0000 0.5000
vt 0.5000 1.0000 0.0000
# 97 texture coords

o Cylinder001
g Cylinder001
usemtl wire_039039039
s 1
f 1/1/1 2/2/1 3/3/1 
f 1/1/1 4/4/1 2/2/1 
f 1/1/1 5/5/1 4/4/1 
f 1/1/1 6/6/1 5/5/1 
f 1/1/1 7/7/1 6/8/1 
f 1/1/1 8/9/1 7/7/1 
f 1/1/1 9/10/1 8/9/1 
f 1/1/1 10/11/1 9/10/1 
f 1/1/1 11/12/1 10/11/1 
f 1/1/1 12/13/1 11/12/1 
f 1/1/1 13/14/1 12/13/1 
f 1/1/1 14/15/1 13/14/1 
f 1/1/1 15/16/1 14/15/1 
f 1/1/1 16/17/1 15/16/1 
f 1/1/1 17/18/1 16/17/1 
f 1/1/1 18/19/1 17/18/1 
f 1/1/1 19/20/1 18/19/1 
f 1/1/1 3/3/1 19/20/1 
f 3/3/1 2/2/1 20/21/2 21/22/3 
f 2/2/1 4/4/1 22/23/4 20/21/2 
f 4/4/1 5/5/1 23/24/5 22/23/4 
f 5/5/1 6/6/1 24/25/6 23/24/5 
f 6/8/1 7/7/1 25/26/7 24/27/6 
f 7/7/1 8/9/1 26/28/8 25/26/7 
f 8/9/1 9/10/1 27/29/9 26/28/8 
f 9/10/1 10/11/1 28/30/10 27/29/9 
f 10/11/1 11/12/1 29/31/11 28/30/10 
f 11/12/1 12/13/1 30/32/12 29/31/11 
f 12/13/1 13/14/1 31/33/13 30/32/12 
f 13/14/1 14/15/1 32/34/14 31/33/13 
f 14/15/1 15/16/1 33/35/15 32/34/14 
f 15/16/1 16/17/1 34/36/16 33/35/15 
f 16/17/1 17/18/1 35/37/17 34/36/16 
f 17/18/1 18/19/1 36/38/18 35/37/17 
f 18/19/1 19/20/1 37/39/19 36/38/18 
f 19/20/1 3/3/1 21/22/3 37/39/19 
s 8
f 21/22/3 20/21/2 38/40/20 39/41/21 
f 20/21/2 22/23/4 40/42/22 38/40/20 
f 22/23/4 23/24/5 41/43/23 40/42/22 
f 23/24/5 24/25/6 42/44/24 41/43/23 
f 24/27/6 25/26/7 43/45/25 42/46/24 
f 25/26/7 26/28/8 44/47/26 43/45/25 
f 26/28/8 27/29/9 45/48/27 44/47/26 
f 27/29/9 28/30/10 46/49/28 45/48/27 
f 28/30/10 29/31/11 47/50/29 46/49/28 
f 29/31/11 30/32/12 48/51/30 47/50/29 
f 30/32/12 31/33/13 49/52/31 48/51/30 
f 31/33/13 32/34/14 50/53/32 49/52/31 
f 32/34/14 33/35/15 51/54/33 50/53/32 
f 33/35/15 34/36/16 52/55/34 51/54/33 
f 34/36/16 35/37/17 53/56/35 52/55/34 
f 35/37/17 36/38/18 54/57/36 53/56/35 
f 36/38/18 37/39/19 55/58/37 54/57/36 
f 37/39/19 21/22/3 39/41/21 55/58/37 
f 39/41/21 38/40/20 56/59/38 57/60/39 
f 38/40/20 40/42/22 58/61/40 56/59/38 
f 40/42/22 41/43/23 59/62/41 58/61/40 
f 41/43/23 42/44/24 60/63/42 59/62/41 
f 42/46/24 43/45/25 61/64/43 60/65/42 
f 43/45/25 44/47/26 62/66/44 61/64/43 
f 44/47/26 45/48/27 63/67/45 62/66/44 
f 45/48/27 46/49/28 64/68/46 63/67/45 
f 46/49/28 47/50/29 65/69/47 64/68/46 
f 47/50/29 48/51/30 66/70/48 65/69/47 
f 48/51/30 49/52/31 67/71/49 66/70/48 
f 49/52/31 50/53/32 68/72/50 67/71/49 
f 50/53/32 51/54/33 69/73/51 68/72/50 
f 51/54/33 52/55/34 70/74/52 69/73/51 
f 52/55/34 53/56/35 71/75/53 70/74/52 
f 53/56/35 54/57/36 72/76/54 71/75/53 
f 54/57/36 55/58/37 73/77/55 72/76/54 
f 55/58/37 39/41/21 57/60/39 73/77/55 
s 1
f 57/60/39 56/59/38 74/78/56 75/79/57 
f 56/59/38 58/61/40 76/80/58 74/78/56 
f 58/61/40 59/62/41 77/81/59 76/80/58 
f 59/62/41 60/63/42 78/82/60 77/81/59 
f 60/65/42 61/64/43 79/83/61 78/84/60 
f 61/64/43 62/66/44 80/85/62 79/83/61 
f 62/66/44 63/67/45 81/86/63 80/85/62 
f 63/67/45 64/68/46 82/87/64 81/86/63 
f 64/68/46 65/69/47 83/88/65 82/87/64 
f 65/69/47 66/70/48 84/89/66 83/88/65 
f 66/70/48 67/71/49 85/90/67 84/89/66 
f 67/71/49 68/72/50 86/91/68 85/90/67 
f 68/72/50 69/73/51 87/92/69 86/91/68 
f 69/73/51 70/74/52 88/93/70 87/92/69 
f 70/74/52 71/75/53 89/94/71 88/93/70 
f 71/75/53 72/76/54 90/95/72 89/94/71 
f 72/76/54 73/77/55 91/96/73 90/95/72 
f 73/77/55 57/60/39 75/79/57 91/96/73 
f 92/97/74 93/79/39 94/78/38 
f 92/97/74 94/78/38 95/80/40 
f 92/97/74 95/80/40 96/81/41 
f 92/97/74 96/81/41 97/82/42 
f 92/97/74 97/84/42 98/83/43 
f 92/97/74 98/83/43 99/85/44 
f 92/97/74 99/85/44 100/86/45 
f 92/97/74 100/86/45 101/87/46 
f 92/97/74 101/87/46 102/88/47 
f 92/97/74 102/88/47 103/89/48 
f 92/97/74 103/89/48 104/90/49 
f 92/97/74 104/90/49 105/91/50 
f 92/97/74 105/91/50 106/92/51 
f 92/97/74 106/92/51 107/93/52 
f 92/97/74 107/93/52 108/94/53 
f 92/97/74 108/94/53 109/95/54 
f 92/97/74 109/95/54 110/96/55 
f 92/97/74 110/96/55 93/79/39 
s off
f 75/79/57 74/78/56 94/78/38 93/79/39 
f 74/78/56 76/80/58 95/80/40 94/78/38 
f 76/80/58 77/81/59 96/81/41 95/80/40 
f 77/81/59 78/82/60 97/82/42 96/81/41 
f 78/84/60 79/83/61 98/83/43 97/84/42 
f 79/83/61 80/85/62 99/85/44 98/83/43 
f 80/85/62 81/86/63 100/86/45 99/85/44 
f 81/86/63 82/87/64 101/87/46 100/86/45 
f 82/87/64 83/88/65 102/88/47 101/87/46 
f 83/88/65 84/89/66 103/89/48 102/88/47 
f 84/89/66 85/90/67 104/90/49 103/89/48 
f 85/90/67 86/91/68 105/91/50 104/90/49 
f 86/91/68 87/92/69 106/92/51 105/91/50 
f 87/92/69 88/93/70 107/93/52 106/92/51 
f 88/93/70 89/94/71 108/94/53 107/93/52 
f 89/94/71 90/95/72 109/95/54 108/94/53 
f 90/95/72 91/96/73 110/96/55 109/95/54 
f 91/96/73 75/79/57 93/79/39 110/96/55 
# 90 polygons - 36 triangles

#
# object Pyramid001
#

v  122.8037 235.0435 1.1613
v  2.1965 267.8505 8.4429
v  2.1965 202.2364 8.4429
v  2.1965 202.2364 -6.1204
v  2.1965 267.8505 -6.1204
v  2.1965 235.0435 1.1613
# 6 vertices

vn 1.0000 -0.0000 -0.0000
vn -0.4250 0.6215 0.6581
vn -0.4250 -0.6215 0.6581
vn -0.4250 -0.6215 -0.6581
vn -0.4250 0.6215 -0.6581
vn -1.0000 0.0000 -0.0000
# 6 vertex normals

vt 0.5000 1.0000 0.0000
vt 0.0000 0.0000 0.0000
vt 1.0000 0.0000 0.0000
vt 0.1682 0.0000 0.0000
vt 1.1682 0.0000 0.0000
vt 0.0000 1.0000 0.0000
vt 0.5000 0.5000 0.0000
vt 1.0000 1.0000 0.0000
# 8 texture coords

o Pyramid001
g Pyramid001
usemtl wire_006135006
s 4
f 111/98/75 112/99/76 113/100/77 
s 2
f 111/98/75 113/101/77 114/102/78 
s 16
f 111/98/75 114/99/78 115/100/79 
s 32
f 111/98/75 115/101/79 112/102/76 
s 8
f 112/103/76 116/104/80 113/105/77 
f 113/105/77 116/104/80 114/100/78 
f 114/100/78 116/104/80 115/99/79 
f 115/99/79 116/104/80 112/103/76 
# 0 polygons - 8 triangles

#
# object Box001
#

v  -36.1721 277.2668 10.4585
v  -36.1721 277.2668 -9.6330
v  39.2236 277.2668 -9.6330
v  39.2236 277.2668 10.4585
v  -36.1721 289.6608 10.4585
v  39.2236 289.6608 10.4585
v  39.2236 289.6608 -9.6330
v  -36.1721 289.6608 -9.6330
# 8 vertices

vn -0.5774 -0.5774 0.5774
vn -0.5774 -0.5774 -0.5774
vn 0.5774 -0.5774 -0.5774
vn 0.5774 -0.5774 0.5774
vn -0.5774 0.5774 0.5774
vn 0.5774 0.5774 0.5774
vn 0.5774 0.5774 -0.5774
vn -0.5774 0.5774 -0.5774
# 8 vertex normals

vt 1.0000 0.0000 0.0000
vt 1.0000 1.0000 0.0000
vt 0.0000 1.0000 0.0000
vt 0.0000 0.0000 0.0000
# 4 texture coords

o Box001
g Box001
usemtl wire_006135058
s 2
f 117/106/81 118/107/82 119/108/83 120/109/84 
s 4
f 121/109/85 122/106/86 123/107/87 124/108/88 
s 8
f 117/109/81 120/106/84 122/107/86 121/108/85 
s 16
f 120/109/84 119/106/83 123/107/87 122/108/86 
s 32
f 119/109/83 118/106/82 124/107/88 123/108/87 
s 64
f 118/109/82 117/106/81 121/107/85 124/108/88 
# 6 polygons

