# 3ds Max Wavefront OBJ Exporter v0.97b - (c)2007 guruware
# File Created: 23.02.2019 20:30:56

mtllib Tracks- 60 degree bend Version 1.mtl

#
# object Box009
#

v  10.1860 1.5089 99.2610
v  -0.2959 1.5089 78.0059
v  3.2293 1.5089 76.5456
v  13.4905 1.5089 97.3532
v  -7.9138 1.5089 55.5643
v  -4.2281 1.5089 54.5767
v  -12.5373 1.5089 32.3205
v  -8.7542 1.5089 31.8224
v  -14.0873 1.5089 8.6720
v  -10.2716 1.5089 8.6720
v  -12.5373 1.5089 -14.9765
v  -8.7542 1.5089 -14.4785
v  -7.9138 1.5089 -38.2204
v  -4.2281 1.5089 -37.2328
v  -0.2959 1.5089 -60.6619
v  3.2293 1.5089 -59.2017
v  10.1860 1.5089 -81.9171
v  13.4905 1.5089 -80.0093
v  10.1860 4.6123 99.2610
v  13.4905 4.6123 97.3532
v  3.2293 4.6123 76.5456
v  -0.2959 4.6123 78.0059
v  -4.2281 4.6123 54.5767
v  -7.9138 4.6123 55.5643
v  -8.7542 4.6123 31.8224
v  -12.5373 4.6123 32.3205
v  -10.2716 4.6123 8.6720
v  -14.0873 4.6123 8.6720
v  -8.7542 4.6123 -14.4785
v  -12.5373 4.6123 -14.9765
v  -4.2281 4.6123 -37.2328
v  -7.9138 4.6123 -38.2204
v  3.2293 4.6123 -59.2017
v  -0.2959 4.6123 -60.6619
v  13.4905 4.6123 -80.0093
v  10.1860 4.6123 -81.9171
# 36 vertices

vn -0.0342 -0.6885 0.7244
vn -0.1147 -0.7006 0.7043
vn 0.1126 -0.7138 -0.6913
vn 0.8423 -0.5375 0.0398
vn -0.1816 -0.6930 0.6977
vn 0.1743 -0.7217 -0.6698
vn -0.3946 -0.6585 0.6408
vn 0.3389 -0.7631 -0.5503
vn -0.8165 -0.5774 0.0000
vn 0.4265 -0.9045 0.0000
vn -0.3946 -0.6585 -0.6408
vn 0.3389 -0.7631 0.5503
vn -0.1816 -0.6930 -0.6977
vn 0.1743 -0.7218 0.6698
vn -0.1147 -0.7006 -0.7043
vn 0.1126 -0.7138 0.6912
vn -0.0342 -0.6885 -0.7244
vn 0.8423 -0.5375 -0.0398
vn -0.0342 0.6885 0.7244
vn 0.8423 0.5375 0.0398
vn 0.1126 0.7138 -0.6913
vn -0.1147 0.7006 0.7043
vn 0.1743 0.7217 -0.6698
vn -0.1816 0.6930 0.6977
vn 0.3389 0.7631 -0.5503
vn -0.3946 0.6585 0.6408
vn 0.4265 0.9045 -0.0000
vn -0.8165 0.5774 0.0000
vn 0.3389 0.7631 0.5502
vn -0.3946 0.6585 -0.6408
vn 0.1743 0.7218 0.6698
vn -0.1816 0.6930 -0.6977
vn 0.1126 0.7138 0.6912
vn -0.1147 0.7006 -0.7043
vn 0.8423 0.5375 -0.0398
vn -0.0342 0.6885 -0.7244
# 36 vertex normals

vt 1.0000 0.0000 0.0000
vt 1.0000 0.1250 0.0000
vt 0.0000 0.1250 0.0000
vt 0.0000 0.0000 0.0000
vt 1.0000 0.2500 0.0000
vt 0.0000 0.2500 0.0000
vt 1.0000 0.3750 0.0000
vt 0.0000 0.3750 0.0000
vt 1.0000 0.5000 0.0000
vt 0.0000 0.5000 0.0000
vt 1.0000 0.6250 0.0000
vt 0.0000 0.6250 0.0000
vt 1.0000 0.7500 0.0000
vt 0.0000 0.7500 0.0000
vt 1.0000 0.8750 0.0000
vt 0.0000 0.8750 0.0000
vt 1.0000 1.0000 0.0000
vt 0.0000 1.0000 0.0000
vt 0.1250 0.0000 0.0000
vt 0.1250 1.0000 0.0000
vt 0.2500 0.0000 0.0000
vt 0.2500 1.0000 0.0000
vt 0.3750 0.0000 0.0000
vt 0.3750 1.0000 0.0000
vt 0.5000 0.0000 0.0000
vt 0.5000 1.0000 0.0000
vt 0.6250 0.0000 0.0000
vt 0.6250 1.0000 0.0000
vt 0.7500 0.0000 0.0000
vt 0.7500 1.0000 0.0000
vt 0.8750 0.0000 0.0000
vt 0.8750 1.0000 0.0000
# 32 texture coords

o Box009
g Box009
usemtl wire_039039039
s 2
f 1/1/1 2/2/2 3/3/3 4/4/4 
f 2/2/2 5/5/5 6/6/6 3/3/3 
f 5/5/5 7/7/7 8/8/8 6/6/6 
f 7/7/7 9/9/9 10/10/10 8/8/8 
f 9/9/9 11/11/11 12/12/12 10/10/10 
f 11/11/11 13/13/13 14/14/14 12/12/12 
f 13/13/13 15/15/15 16/16/16 14/14/14 
f 15/15/15 17/17/17 18/18/18 16/16/16 
s 4
f 19/4/19 20/1/20 21/2/21 22/3/22 
f 22/3/22 21/2/21 23/5/23 24/6/24 
f 24/6/24 23/5/23 25/7/25 26/8/26 
f 26/8/26 25/7/25 27/9/27 28/10/28 
f 28/10/28 27/9/27 29/11/29 30/12/30 
f 30/12/30 29/11/29 31/13/31 32/14/32 
f 32/14/32 31/13/31 33/15/33 34/16/34 
f 34/16/34 33/15/33 35/17/35 36/18/36 
s 8
f 1/4/1 4/1/4 20/17/20 19/18/19 
s 16
f 4/4/4 3/19/3 21/20/21 20/18/20 
f 3/19/3 6/21/6 23/22/23 21/20/21 
f 6/21/6 8/23/8 25/24/25 23/22/23 
f 8/23/8 10/25/10 27/26/27 25/24/25 
f 10/25/10 12/27/12 29/28/29 27/26/27 
f 12/27/12 14/29/14 31/30/31 29/28/29 
f 14/29/14 16/31/16 33/32/33 31/30/31 
f 16/31/16 18/1/18 35/17/35 33/32/33 
s 32
f 18/4/18 17/1/17 36/17/36 35/18/35 
s 64
f 17/4/17 15/19/15 34/20/34 36/18/36 
f 15/19/15 13/21/13 32/22/32 34/20/34 
f 13/21/13 11/23/11 30/24/30 32/22/32 
f 11/23/11 9/25/9 28/26/28 30/24/30 
f 9/25/9 7/27/7 26/28/26 28/26/28 
f 7/27/7 5/29/5 24/30/24 26/28/26 
f 5/29/5 2/31/2 22/32/22 24/30/24 
f 2/31/2 1/1/1 19/17/19 22/32/22 
# 34 polygons

#
# object Box010
#

v  30.3985 1.5089 87.5913
v  21.2669 1.5089 69.0742
v  24.7922 1.5089 67.6140
v  33.7030 1.5089 85.6835
v  14.6304 1.5089 49.5236
v  18.3161 1.5089 48.5360
v  10.6025 1.5089 29.2740
v  14.3856 1.5089 28.7760
v  9.2521 1.5089 8.6720
v  13.0679 1.5089 8.6720
v  10.6025 1.5089 -11.9301
v  14.3856 1.5089 -11.4321
v  14.6304 1.5089 -32.1797
v  18.3161 1.5089 -31.1921
v  21.2669 1.5089 -51.7303
v  24.7922 1.5089 -50.2701
v  30.3985 1.5089 -70.2474
v  33.7030 1.5089 -68.3396
v  30.3985 4.6123 87.5913
v  33.7030 4.6123 85.6835
v  24.7922 4.6123 67.6140
v  21.2669 4.6123 69.0742
v  18.3161 4.6123 48.5360
v  14.6304 4.6123 49.5236
v  14.3856 4.6123 28.7760
v  10.6025 4.6123 29.2740
v  13.0679 4.6123 8.6720
v  9.2521 4.6123 8.6720
v  14.3856 4.6123 -11.4321
v  10.6025 4.6123 -11.9301
v  18.3161 4.6123 -31.1921
v  14.6304 4.6123 -32.1797
v  24.7922 4.6123 -50.2701
v  21.2669 4.6123 -51.7303
v  33.7030 4.6123 -68.3396
v  30.3985 4.6123 -70.2474
# 36 vertices

vn -0.0342 -0.6885 0.7244
vn -0.1147 -0.7006 0.7043
vn 0.1126 -0.7138 -0.6913
vn 0.8423 -0.5375 0.0398
vn -0.1816 -0.6930 0.6977
vn 0.1743 -0.7218 -0.6698
vn -0.3946 -0.6585 0.6408
vn 0.3389 -0.7631 -0.5503
vn -0.8165 -0.5774 -0.0000
vn 0.4265 -0.9045 -0.0000
vn -0.3946 -0.6585 -0.6408
vn 0.3389 -0.7631 0.5503
vn -0.1816 -0.6930 -0.6977
vn 0.1743 -0.7217 0.6698
vn -0.1147 -0.7006 -0.7043
vn 0.1126 -0.7138 0.6913
vn -0.0342 -0.6885 -0.7244
vn 0.8423 -0.5375 -0.0398
vn -0.0342 0.6885 0.7244
vn 0.8423 0.5375 0.0398
vn 0.1126 0.7138 -0.6913
vn -0.1147 0.7006 0.7043
vn 0.1743 0.7217 -0.6699
vn -0.1816 0.6930 0.6977
vn 0.3389 0.7631 -0.5502
vn -0.3946 0.6585 0.6408
vn 0.4265 0.9045 -0.0000
vn -0.8165 0.5774 -0.0000
vn 0.3389 0.7631 0.5503
vn -0.3946 0.6585 -0.6408
vn 0.1743 0.7217 0.6698
vn -0.1816 0.6930 -0.6977
vn 0.1126 0.7138 0.6913
vn -0.1147 0.7006 -0.7043
vn 0.8423 0.5375 -0.0398
vn -0.0342 0.6885 -0.7244
# 36 vertex normals

vt 1.0000 0.0000 0.0000
vt 1.0000 0.1250 0.0000
vt 0.0000 0.1250 0.0000
vt 0.0000 0.0000 0.0000
vt 1.0000 0.2500 0.0000
vt 0.0000 0.2500 0.0000
vt 1.0000 0.3750 0.0000
vt 0.0000 0.3750 0.0000
vt 1.0000 0.5000 0.0000
vt 0.0000 0.5000 0.0000
vt 1.0000 0.6250 0.0000
vt 0.0000 0.6250 0.0000
vt 1.0000 0.7500 0.0000
vt 0.0000 0.7500 0.0000
vt 1.0000 0.8750 0.0000
vt 0.0000 0.8750 0.0000
vt 1.0000 1.0000 0.0000
vt 0.0000 1.0000 0.0000
vt 0.1250 0.0000 0.0000
vt 0.1250 1.0000 0.0000
vt 0.2500 0.0000 0.0000
vt 0.2500 1.0000 0.0000
vt 0.3750 0.0000 0.0000
vt 0.3750 1.0000 0.0000
vt 0.5000 0.0000 0.0000
vt 0.5000 1.0000 0.0000
vt 0.6250 0.0000 0.0000
vt 0.6250 1.0000 0.0000
vt 0.7500 0.0000 0.0000
vt 0.7500 1.0000 0.0000
vt 0.8750 0.0000 0.0000
vt 0.8750 1.0000 0.0000
# 32 texture coords

o Box010
g Box010
usemtl wire_039039039
s 2
f 37/33/37 38/34/38 39/35/39 40/36/40 
f 38/34/38 41/37/41 42/38/42 39/35/39 
f 41/37/41 43/39/43 44/40/44 42/38/42 
f 43/39/43 45/41/45 46/42/46 44/40/44 
f 45/41/45 47/43/47 48/44/48 46/42/46 
f 47/43/47 49/45/49 50/46/50 48/44/48 
f 49/45/49 51/47/51 52/48/52 50/46/50 
f 51/47/51 53/49/53 54/50/54 52/48/52 
s 4
f 55/36/55 56/33/56 57/34/57 58/35/58 
f 58/35/58 57/34/57 59/37/59 60/38/60 
f 60/38/60 59/37/59 61/39/61 62/40/62 
f 62/40/62 61/39/61 63/41/63 64/42/64 
f 64/42/64 63/41/63 65/43/65 66/44/66 
f 66/44/66 65/43/65 67/45/67 68/46/68 
f 68/46/68 67/45/67 69/47/69 70/48/70 
f 70/48/70 69/47/69 71/49/71 72/50/72 
s 8
f 37/36/37 40/33/40 56/49/56 55/50/55 
s 16
f 40/36/40 39/51/39 57/52/57 56/50/56 
f 39/51/39 42/53/42 59/54/59 57/52/57 
f 42/53/42 44/55/44 61/56/61 59/54/59 
f 44/55/44 46/57/46 63/58/63 61/56/61 
f 46/57/46 48/59/48 65/60/65 63/58/63 
f 48/59/48 50/61/50 67/62/67 65/60/65 
f 50/61/50 52/63/52 69/64/69 67/62/67 
f 52/63/52 54/33/54 71/49/71 69/64/69 
s 32
f 54/36/54 53/33/53 72/49/72 71/50/71 
s 64
f 53/36/53 51/51/51 70/52/70 72/50/72 
f 51/51/51 49/53/49 68/54/68 70/52/70 
f 49/53/49 47/55/47 66/56/66 68/54/68 
f 47/55/47 45/57/45 64/58/64 66/56/66 
f 45/57/45 43/59/43 62/60/62 64/58/64 
f 43/59/43 41/61/41 60/62/60 62/60/62 
f 41/61/41 38/63/38 58/64/58 60/62/60 
f 38/63/38 37/33/37 55/49/55 58/64/58 
# 34 polygons

#
# object Box011
#

v  -20.9363 0.0000 4.5603
v  -20.8386 0.0000 1.3476
v  19.3506 0.0000 2.9139
v  19.2738 0.0000 5.4396
v  -20.9363 1.9368 4.5603
v  19.2738 1.9368 5.4396
v  19.3506 1.9368 2.9139
v  -20.8386 1.9368 1.3476
# 8 vertices

vn -0.5923 -0.5782 0.5612
vn -0.5545 -0.5751 -0.6015
vn 0.5990 -0.5797 -0.5524
vn 0.5619 -0.5766 0.5932
vn -0.5923 0.5782 0.5612
vn 0.5621 0.5765 0.5931
vn 0.5990 0.5797 -0.5524
vn -0.5545 0.5751 -0.6015
# 8 vertex normals

vt 1.0000 0.0000 0.0000
vt 1.0000 1.0000 0.0000
vt 0.0000 1.0000 0.0000
vt 0.0000 0.0000 0.0000
# 4 texture coords

o Box011
g Box011
usemtl wire_135059008
s 2
f 73/65/73 74/66/74 75/67/75 76/68/76 
s 4
f 77/68/77 78/65/78 79/66/79 80/67/80 
s 8
f 73/68/73 76/65/76 78/66/78 77/67/77 
s 16
f 76/68/76 75/65/75 79/66/79 78/67/78 
s 32
f 75/68/75 74/65/74 80/66/80 79/67/79 
s 64
f 74/68/74 73/65/73 77/66/77 80/67/80 
# 6 polygons

#
# object Box012
#

v  -20.1817 0.0000 -8.6520
v  -19.8582 -0.0000 -11.8499
v  20.1213 0.0000 -7.4612
v  19.8671 0.0000 -4.9472
v  -20.1817 1.9368 -8.6520
v  19.8671 1.9368 -4.9472
v  20.1213 1.9368 -7.4612
v  -19.8582 1.9368 -11.8499
# 8 vertices

vn -0.6323 -0.5819 0.5115
vn -0.5074 -0.5718 -0.6446
vn 0.6381 -0.5834 -0.5024
vn 0.5155 -0.5730 0.6371
vn -0.6321 0.5819 0.5118
vn 0.5156 0.5731 0.6369
vn 0.6381 0.5834 -0.5024
vn -0.5074 0.5718 -0.6446
# 8 vertex normals

vt 1.0000 0.0000 0.0000
vt 1.0000 1.0000 0.0000
vt 0.0000 1.0000 0.0000
vt 0.0000 0.0000 0.0000
# 4 texture coords

o Box012
g Box012
usemtl wire_135059008
s 2
f 81/69/81 82/70/82 83/71/83 84/72/84 
s 4
f 85/72/85 86/69/86 87/70/87 88/71/88 
s 8
f 81/72/81 84/69/84 86/70/86 85/71/85 
s 16
f 84/72/84 83/69/83 87/70/87 86/71/86 
s 32
f 83/72/83 82/69/82 88/70/88 87/71/87 
s 64
f 82/72/82 81/69/81 85/70/85 88/71/88 
# 6 polygons

#
# object Box013
#

v  -18.2471 0.0000 -23.2803
v  -17.6740 0.0000 -26.4430
v  21.8384 0.0000 -18.9335
v  21.3879 0.0000 -16.4472
v  -18.2471 1.9368 -23.2803
v  21.3879 1.9368 -16.4472
v  21.8384 1.9368 -18.9335
v  -17.6740 1.9368 -26.4430
# 8 vertices

vn -0.6712 -0.5861 0.4538
vn -0.4518 -0.5684 -0.6876
vn 0.6762 -0.5875 -0.4445
vn 0.4603 -0.5696 0.6810
vn -0.6713 0.5859 0.4539
vn 0.4605 0.5696 0.6808
vn 0.6762 0.5875 -0.4445
vn -0.4518 0.5684 -0.6876
# 8 vertex normals

vt 1.0000 0.0000 0.0000
vt 1.0000 1.0000 0.0000
vt 0.0000 1.0000 0.0000
vt 0.0000 0.0000 0.0000
# 4 texture coords

o Box013
g Box013
usemtl wire_135059008
s 2
f 89/73/89 90/74/90 91/75/91 92/76/92 
s 4
f 93/76/93 94/73/94 95/74/95 96/75/96 
s 8
f 89/76/89 92/73/92 94/74/94 93/75/93 
s 16
f 92/76/92 91/73/91 95/74/95 94/75/94 
s 32
f 91/76/91 90/73/90 96/74/96 95/75/95 
s 64
f 90/76/90 89/73/89 93/74/93 96/75/96 
# 6 polygons

#
# object Box014
#

v  -15.3708 0.0000 -36.9224
v  -14.5650 -0.0000 -40.0340
v  24.2826 0.0000 -29.6181
v  23.6491 0.0000 -27.1719
v  -15.3708 1.9368 -36.9224
v  23.6491 1.9368 -27.1719
v  24.2826 1.9368 -29.6181
v  -14.5650 1.9368 -40.0340
# 8 vertices

vn -0.7028 -0.5897 0.3978
vn -0.3973 -0.5657 -0.7226
vn 0.7066 -0.5913 -0.3887
vn 0.4058 -0.5667 0.7170
vn -0.7028 0.5897 0.3978
vn 0.4060 0.5667 0.7170
vn 0.7066 0.5914 -0.3885
vn -0.3971 0.5656 -0.7228
# 8 vertex normals

vt 1.0000 0.0000 0.0000
vt 1.0000 1.0000 0.0000
vt 0.0000 1.0000 0.0000
vt 0.0000 0.0000 0.0000
# 4 texture coords

o Box014
g Box014
usemtl wire_135059008
s 2
f 97/77/97 98/78/98 99/79/99 100/80/100 
s 4
f 101/80/101 102/77/102 103/78/103 104/79/104 
s 8
f 97/80/97 100/77/100 102/78/102 101/79/101 
s 16
f 100/80/100 99/77/99 103/78/103 102/79/102 
s 32
f 99/80/99 98/77/98 104/78/104 103/79/103 
s 64
f 98/80/98 97/77/97 101/78/101 104/79/104 
# 6 polygons

#
# object Box015
#

v  -11.5976 -0.0000 -49.9927
v  -10.5690 -0.0000 -53.0379
v  27.4241 0.0000 -39.8411
v  26.6154 0.0000 -37.4471
v  -11.5976 1.9368 -49.9927
v  26.6154 1.9368 -37.4471
v  27.4241 1.9368 -39.8411
v  -10.5690 1.9368 -53.0379
# 8 vertices

vn -0.7285 -0.5932 0.3427
vn -0.3429 -0.5633 -0.7518
vn 0.7315 -0.5947 -0.3336
vn 0.3514 -0.5643 0.7471
vn -0.7285 0.5932 0.3427
vn 0.3514 0.5643 0.7471
vn 0.7315 0.5947 -0.3336
vn -0.3429 0.5633 -0.7518
# 8 vertex normals

vt 1.0000 0.0000 0.0000
vt 1.0000 1.0000 0.0000
vt 0.0000 1.0000 0.0000
vt 0.0000 0.0000 0.0000
# 4 texture coords

o Box015
g Box015
usemtl wire_135059008
s 2
f 105/81/105 106/82/106 107/83/107 108/84/108 
s 4
f 109/84/109 110/81/110 111/82/111 112/83/112 
s 8
f 105/84/105 108/81/108 110/82/110 109/83/109 
s 16
f 108/84/108 107/81/107 111/82/111 110/83/110 
s 32
f 107/84/107 106/81/106 112/82/112 111/83/111 
s 64
f 106/84/106 105/81/105 109/82/109 112/83/112 
# 6 polygons

#
# object Box016
#

v  -6.5783 -0.0000 -63.5093
v  -5.3194 -0.0000 -66.4667
v  31.5510 0.0000 -50.3981
v  30.5613 0.0000 -48.0732
v  -6.5783 1.9368 -63.5093
v  30.5613 1.9368 -48.0732
v  31.5510 1.9368 -50.3981
v  -5.3194 1.9368 -66.4667
# 8 vertices

vn -0.7506 -0.5964 0.2843
vn -0.2848 -0.5613 -0.7771
vn 0.7527 -0.5978 -0.2757
vn 0.2930 -0.5621 0.7734
vn -0.7506 0.5964 0.2843
vn 0.2930 0.5621 0.7734
vn 0.7527 0.5979 -0.2756
vn -0.2845 0.5612 -0.7772
# 8 vertex normals

vt 1.0000 0.0000 0.0000
vt 1.0000 1.0000 0.0000
vt 0.0000 1.0000 0.0000
vt 0.0000 0.0000 0.0000
# 4 texture coords

o Box016
g Box016
usemtl wire_135059008
s 2
f 113/85/113 114/86/114 115/87/115 116/88/116 
s 4
f 117/88/117 118/85/118 119/86/119 120/87/120 
s 8
f 113/88/113 116/85/116 118/86/118 117/87/117 
s 16
f 116/88/116 115/85/115 119/86/119 118/87/118 
s 32
f 115/88/115 114/85/114 120/86/120 119/87/119 
s 64
f 114/88/114 113/85/113 117/86/117 120/87/120 
# 6 polygons

#
# object Box017
#

v  -0.7093 -0.0000 -76.2646
v  0.7667 -0.0000 -79.1198
v  36.3356 0.0000 -60.3453
v  35.1752 0.0000 -58.1007
v  -0.7093 1.9368 -76.2646
v  35.1752 1.9368 -58.1007
v  36.3356 1.9368 -60.3453
v  0.7667 1.9368 -79.1198
# 8 vertices

vn -0.7675 -0.5992 0.2281
vn -0.2279 -0.5597 -0.7968
vn 0.7687 -0.6006 -0.2200
vn 0.2361 -0.5604 0.7938
vn -0.7675 0.5992 0.2281
vn 0.2361 0.5604 0.7938
vn 0.7687 0.6006 -0.2200
vn -0.2279 0.5597 -0.7968
# 8 vertex normals

vt 1.0000 0.0000 0.0000
vt 1.0000 1.0000 0.0000
vt 0.0000 1.0000 0.0000
vt 0.0000 0.0000 0.0000
# 4 texture coords

o Box017
g Box017
usemtl wire_135059008
s 2
f 121/89/121 122/90/122 123/91/123 124/92/124 
s 4
f 125/92/125 126/89/126 127/90/127 128/91/128 
s 8
f 121/92/121 124/89/124 126/90/126 125/91/125 
s 16
f 124/92/124 123/89/123 127/90/127 126/91/126 
s 32
f 123/92/123 122/89/122 128/90/128 127/91/127 
s 64
f 122/92/122 121/89/121 125/90/125 128/91/128 
# 6 polygons

#
# object Box018
#

v  -20.7152 0.0000 18.6724
v  -20.8586 0.0000 15.4614
v  19.3348 0.0000 14.0095
v  19.4476 0.0000 16.5338
v  -20.7152 1.9368 18.6724
v  19.4476 1.9368 16.5338
v  19.3348 1.9368 14.0095
v  -20.8586 1.9368 15.4614
# 8 vertices

vn -0.5453 -0.5744 0.6105
vn -0.6007 -0.5789 -0.5514
vn 0.5529 -0.5758 -0.6023
vn 0.6074 -0.5804 0.5424
vn -0.5453 0.5744 0.6105
vn 0.6074 0.5804 0.5424
vn 0.5529 0.5758 -0.6023
vn -0.6007 0.5789 -0.5514
# 8 vertex normals

vt 1.0000 0.0000 0.0000
vt 1.0000 1.0000 0.0000
vt 0.0000 1.0000 0.0000
vt 0.0000 0.0000 0.0000
# 4 texture coords

o Box018
g Box018
usemtl wire_135059008
s 2
f 129/93/129 130/94/130 131/95/131 132/96/132 
s 4
f 133/96/133 134/93/134 135/94/135 136/95/136 
s 8
f 129/96/129 132/93/132 134/94/134 133/95/133 
s 16
f 132/96/132 131/93/131 135/94/135 134/95/134 
s 32
f 131/96/131 130/93/130 136/94/136 135/95/135 
s 64
f 130/96/130 129/93/129 133/94/133 136/95/136 
# 6 polygons

#
# object Box019
#

v  -19.4736 0.0000 32.4379
v  -19.8525 0.0000 29.2461
v  20.1258 -0.0000 24.8463
v  20.4237 -0.0000 27.3555
v  -19.4736 1.9368 32.4379
v  20.4237 1.9368 27.3555
v  20.1258 1.9368 24.8463
v  -19.8525 1.9368 29.2461
# 8 vertices

vn -0.4954 -0.5709 0.6547
vn -0.6413 -0.5828 -0.4991
vn 0.5035 -0.5723 -0.6472
vn 0.6470 -0.5844 0.4898
vn -0.4955 0.5710 0.6545
vn 0.6471 0.5842 0.4898
vn 0.5035 0.5723 -0.6472
vn -0.6413 0.5828 -0.4991
# 8 vertex normals

vt 1.0000 0.0000 0.0000
vt 1.0000 1.0000 0.0000
vt 0.0000 1.0000 0.0000
vt 0.0000 0.0000 0.0000
# 4 texture coords

o Box019
g Box019
usemtl wire_135059008
s 2
f 137/97/137 138/98/138 139/99/139 140/100/140 
s 4
f 141/100/141 142/97/142 143/98/143 144/99/144 
s 8
f 137/100/137 140/97/140 142/98/142 141/99/141 
s 16
f 140/100/140 139/97/139 143/98/143 142/99/142 
s 32
f 139/100/139 138/97/138 144/98/144 143/99/143 
s 64
f 138/100/138 137/97/137 141/98/141 144/99/144 
# 6 polygons

#
# object Box020
#

v  -17.3697 0.0000 45.3519
v  -17.9696 0.0000 42.1942
v  21.6061 -0.0000 35.0254
v  22.0777 -0.0000 37.5078
v  -17.3697 1.9368 45.3519
v  22.0777 1.9368 37.5078
v  21.6061 1.9368 35.0254
v  -17.9696 1.9368 42.1942
# 8 vertices

vn -0.4457 -0.5680 0.6919
vn -0.6751 -0.5864 -0.4475
vn 0.4541 -0.5693 -0.6853
vn 0.6799 -0.5880 0.4381
vn -0.4459 0.5681 0.6917
vn 0.6800 0.5879 0.4382
vn 0.4541 0.5693 -0.6853
vn -0.6751 0.5864 -0.4475
# 8 vertex normals

vt 1.0000 0.0000 0.0000
vt 1.0000 1.0000 0.0000
vt 0.0000 1.0000 0.0000
vt 0.0000 0.0000 0.0000
# 4 texture coords

o Box020
g Box020
usemtl wire_135059008
s 2
f 145/101/145 146/102/146 147/103/147 148/104/148 
s 4
f 149/104/149 150/101/150 151/102/151 152/103/152 
s 8
f 145/104/145 148/101/148 150/102/150 149/103/149 
s 16
f 148/104/148 147/101/147 151/102/151 150/103/150 
s 32
f 147/104/147 146/101/146 152/102/152 151/103/151 
s 64
f 146/104/146 145/101/145 149/102/149 152/103/152 
# 6 polygons

#
# object Box021
#

v  -13.8987 0.0000 59.7981
v  -14.7460 0.0000 56.6976
v  24.1403 -0.0000 46.4272
v  24.8064 -0.0000 48.8647
v  -13.8987 1.9368 59.7981
v  24.8064 1.9368 48.8647
v  24.1403 1.9368 46.4272
v  -14.7460 1.9368 56.6976
# 8 vertices

vn -0.3873 -0.5651 0.7284
vn -0.7079 -0.5904 -0.3877
vn 0.3959 -0.5662 -0.7229
vn 0.7116 -0.5919 0.3784
vn -0.3873 0.5651 0.7284
vn 0.7116 0.5919 0.3784
vn 0.3959 0.5662 -0.7229
vn -0.7079 0.5904 -0.3877
# 8 vertex normals

vt 1.0000 0.0000 0.0000
vt 1.0000 1.0000 0.0000
vt 0.0000 1.0000 0.0000
vt 0.0000 0.0000 0.0000
# 4 texture coords

o Box021
g Box021
usemtl wire_135059008
s 2
f 153/105/153 154/106/154 155/107/155 156/108/156 
s 4
f 157/108/157 158/105/158 159/106/159 160/107/160 
s 8
f 153/108/153 156/105/156 158/106/158 157/107/157 
s 16
f 156/108/156 155/105/155 159/106/159 158/107/158 
s 32
f 155/108/155 154/105/154 160/106/160 159/107/159 
s 64
f 154/108/154 153/105/153 157/106/157 160/107/160 
# 6 polygons

#
# object Box022
#

v  -9.5541 0.0000 73.2294
v  -10.6316 0.0000 70.2011
v  27.3748 -0.0000 57.0430
v  28.2219 -0.0000 59.4236
v  -9.5541 1.9368 73.2294
v  28.2219 1.9368 59.4236
v  27.3748 1.9368 57.0430
v  -10.6316 1.9368 70.2011
# 8 vertices

vn -0.3307 -0.5628 0.7576
vn -0.7336 -0.5939 -0.3304
vn 0.3392 -0.5638 -0.7531
vn 0.7363 -0.5954 0.3214
vn -0.3307 0.5628 0.7576
vn 0.7363 0.5954 0.3214
vn 0.3392 0.5638 -0.7531
vn -0.7336 0.5939 -0.3304
# 8 vertex normals

vt 1.0000 0.0000 0.0000
vt 1.0000 1.0000 0.0000
vt 0.0000 1.0000 0.0000
vt 0.0000 0.0000 0.0000
# 4 texture coords

o Box022
g Box022
usemtl wire_135059008
s 2
f 161/109/161 162/110/162 163/111/163 164/112/164 
s 4
f 165/112/165 166/109/166 167/110/167 168/111/168 
s 8
f 161/112/161 164/109/164 166/110/166 165/111/165 
s 16
f 164/112/164 163/109/163 167/110/167 166/111/166 
s 32
f 163/112/163 162/109/162 168/110/168 167/111/167 
s 64
f 162/112/162 161/109/161 165/110/165 168/111/168 
# 6 polygons

#
# object Box023
#

v  -4.2163 0.0000 86.2926
v  -5.5178 0.0000 83.3537
v  31.3950 -0.0000 67.3828
v  32.4182 -0.0000 69.6933
v  -4.2163 1.9368 86.2926
v  32.4182 1.9368 69.6933
v  31.3950 1.9368 67.3828
v  -5.5178 1.9368 83.3537
# 8 vertices

vn -0.2736 -0.5609 0.7814
vn -0.7542 -0.5970 -0.2734
vn 0.2820 -0.5618 -0.7778
vn 0.7561 -0.5985 0.2648
vn -0.2738 0.5609 0.7813
vn 0.7561 0.5984 0.2649
vn 0.2820 0.5618 -0.7778
vn -0.7542 0.5970 -0.2734
# 8 vertex normals

vt 1.0000 0.0000 0.0000
vt 1.0000 1.0000 0.0000
vt 0.0000 1.0000 0.0000
vt 0.0000 0.0000 0.0000
# 4 texture coords

o Box023
g Box023
usemtl wire_135059008
s 2
f 169/113/169 170/114/170 171/115/171 172/116/172 
s 4
f 173/116/173 174/113/174 175/114/175 176/115/176 
s 8
f 169/116/169 172/113/172 174/114/174 173/115/173 
s 16
f 172/116/172 171/113/171 175/114/175 174/115/174 
s 32
f 171/116/171 170/113/170 176/114/176 175/115/175 
s 64
f 170/116/170 169/113/169 173/114/173 176/115/176 
# 6 polygons

#
# object Box024
#

v  2.0838 0.0000 98.9148
v  0.5657 0.0000 96.0817
v  36.1775 -0.0000 77.3889
v  37.3710 -0.0000 79.6162
v  2.0838 1.9368 98.9148
v  37.3710 1.9368 79.6162
v  36.1775 1.9368 77.3889
v  0.5657 1.9368 96.0817
# 8 vertices

vn -0.2169 -0.5593 0.8001
vn -0.7702 -0.5997 -0.2171
vn 0.2245 -0.5602 -0.7973
vn 0.7714 -0.6010 0.2090
vn -0.2169 0.5593 0.8001
vn 0.7715 0.6009 0.2089
vn 0.2245 0.5602 -0.7973
vn -0.7702 0.5997 -0.2171
# 8 vertex normals

vt 1.0000 0.0000 0.0000
vt 1.0000 1.0000 0.0000
vt 0.0000 1.0000 0.0000
vt 0.0000 0.0000 0.0000
# 4 texture coords

o Box024
g Box024
usemtl wire_135059008
s 2
f 177/117/177 178/118/178 179/119/179 180/120/180 
s 4
f 181/120/181 182/117/182 183/118/183 184/119/184 
s 8
f 177/120/177 180/117/180 182/118/182 181/119/181 
s 16
f 180/120/180 179/117/179 183/118/183 182/119/182 
s 32
f 179/120/179 178/117/178 184/118/184 183/119/183 
s 64
f 178/120/178 177/117/177 181/118/181 184/119/184 
# 6 polygons

