# 3ds Max Wavefront OBJ Exporter v0.97b - (c)2007 guruware
# File Created: 23.02.2019 20:03:02

mtllib Tracks-Straight line Version 1.mtl

#
# object Box009
#

v  -14.0873 1.5089 96.6168
v  -14.0873 1.5089 -79.2729
v  -10.2716 1.5089 -79.2729
v  -10.2716 1.5089 96.6168
v  -14.0873 4.6123 96.6168
v  -10.2716 4.6123 96.6168
v  -10.2716 4.6123 -79.2729
v  -14.0873 4.6123 -79.2729
# 8 vertices

vn -0.5774 -0.5774 0.5774
vn -0.5774 -0.5774 -0.5774
vn 0.5774 -0.5774 -0.5774
vn 0.5774 -0.5774 0.5774
vn -0.5774 0.5774 0.5774
vn 0.5774 0.5774 0.5774
vn 0.5774 0.5774 -0.5774
vn -0.5774 0.5774 -0.5774
# 8 vertex normals

vt 1.0000 0.0000 0.0000
vt 1.0000 1.0000 0.0000
vt 0.0000 1.0000 0.0000
vt 0.0000 0.0000 0.0000
# 4 texture coords

o Box009
g Box009
usemtl wire_039039039
s 2
f 1/1/1 2/2/2 3/3/3 4/4/4 
s 4
f 5/4/5 6/1/6 7/2/7 8/3/8 
s 8
f 1/4/1 4/1/4 6/2/6 5/3/5 
s 16
f 4/4/4 3/1/3 7/2/7 6/3/6 
s 32
f 3/4/3 2/1/2 8/2/8 7/3/7 
s 64
f 2/4/2 1/1/1 5/2/5 8/3/8 
# 6 polygons

#
# object Box010
#

v  9.2521 1.5089 96.6168
v  9.2521 1.5089 -79.2729
v  13.0679 1.5089 -79.2729
v  13.0679 1.5089 96.6168
v  9.2521 4.6123 96.6168
v  13.0679 4.6123 96.6168
v  13.0679 4.6123 -79.2729
v  9.2521 4.6123 -79.2729
# 8 vertices

vn -0.5774 -0.5774 0.5774
vn -0.5774 -0.5774 -0.5774
vn 0.5774 -0.5774 -0.5774
vn 0.5774 -0.5774 0.5774
vn -0.5774 0.5774 0.5774
vn 0.5774 0.5774 0.5774
vn 0.5774 0.5774 -0.5774
vn -0.5774 0.5774 -0.5774
# 8 vertex normals

vt 1.0000 0.0000 0.0000
vt 1.0000 1.0000 0.0000
vt 0.0000 1.0000 0.0000
vt 0.0000 0.0000 0.0000
# 4 texture coords

o Box010
g Box010
usemtl wire_039039039
s 2
f 9/5/9 10/6/10 11/7/11 12/8/12 
s 4
f 13/8/13 14/5/14 15/6/15 16/7/16 
s 8
f 9/8/9 12/5/12 14/6/14 13/7/13 
s 16
f 12/8/12 11/5/11 15/6/15 14/7/14 
s 32
f 11/8/11 10/5/10 16/6/16 15/7/15 
s 64
f 10/8/10 9/5/9 13/6/13 16/7/16 
# 6 polygons

#
# object Box011
#

v  -20.9812 0.0000 4.9997
v  -20.9812 0.0000 2.1291
v  19.2385 0.0000 2.1291
v  19.2385 0.0000 4.9997
v  -20.9812 1.9368 4.9997
v  19.2385 1.9368 4.9997
v  19.2385 1.9368 2.1291
v  -20.9812 1.9368 2.1291
# 8 vertices

vn -0.5774 -0.5774 0.5774
vn -0.5774 -0.5774 -0.5774
vn 0.5774 -0.5774 -0.5774
vn 0.5774 -0.5774 0.5774
vn -0.5774 0.5774 0.5774
vn 0.5774 0.5774 0.5774
vn 0.5774 0.5774 -0.5774
vn -0.5774 0.5774 -0.5774
# 8 vertex normals

vt 1.0000 0.0000 0.0000
vt 1.0000 1.0000 0.0000
vt 0.0000 1.0000 0.0000
vt 0.0000 0.0000 0.0000
# 4 texture coords

o Box011
g Box011
usemtl wire_135059008
s 2
f 17/9/17 18/10/18 19/11/19 20/12/20 
s 4
f 21/12/21 22/9/22 23/10/23 24/11/24 
s 8
f 17/12/17 20/9/20 22/10/22 21/11/21 
s 16
f 20/12/20 19/9/19 23/10/23 22/11/22 
s 32
f 19/12/19 18/9/18 24/10/24 23/11/23 
s 64
f 18/12/18 17/9/17 21/10/21 24/11/24 
# 6 polygons

#
# object Box012
#

v  -20.9812 0.0000 -6.8215
v  -20.9812 0.0000 -9.6921
v  19.2385 0.0000 -9.6921
v  19.2385 0.0000 -6.8215
v  -20.9812 1.9368 -6.8215
v  19.2385 1.9368 -6.8215
v  19.2385 1.9368 -9.6921
v  -20.9812 1.9368 -9.6921
# 8 vertices

vn -0.5774 -0.5774 0.5774
vn -0.5774 -0.5774 -0.5774
vn 0.5774 -0.5774 -0.5774
vn 0.5774 -0.5774 0.5774
vn -0.5774 0.5774 0.5774
vn 0.5774 0.5774 0.5774
vn 0.5774 0.5774 -0.5774
vn -0.5774 0.5774 -0.5774
# 8 vertex normals

vt 1.0000 0.0000 0.0000
vt 1.0000 1.0000 0.0000
vt 0.0000 1.0000 0.0000
vt 0.0000 0.0000 0.0000
# 4 texture coords

o Box012
g Box012
usemtl wire_135059008
s 2
f 25/13/25 26/14/26 27/15/27 28/16/28 
s 4
f 29/16/29 30/13/30 31/14/31 32/15/32 
s 8
f 25/16/25 28/13/28 30/14/30 29/15/29 
s 16
f 28/16/28 27/13/27 31/14/31 30/15/30 
s 32
f 27/16/27 26/13/26 32/14/32 31/15/31 
s 64
f 26/16/26 25/13/25 29/14/29 32/15/32 
# 6 polygons

#
# object Box013
#

v  -20.9812 0.0000 -20.0028
v  -20.9812 0.0000 -22.8734
v  19.2385 0.0000 -22.8734
v  19.2385 0.0000 -20.0028
v  -20.9812 1.9368 -20.0028
v  19.2385 1.9368 -20.0028
v  19.2385 1.9368 -22.8734
v  -20.9812 1.9368 -22.8734
# 8 vertices

vn -0.5774 -0.5774 0.5774
vn -0.5774 -0.5774 -0.5774
vn 0.5774 -0.5774 -0.5774
vn 0.5774 -0.5774 0.5774
vn -0.5774 0.5774 0.5774
vn 0.5774 0.5774 0.5774
vn 0.5774 0.5774 -0.5774
vn -0.5774 0.5774 -0.5774
# 8 vertex normals

vt 1.0000 0.0000 0.0000
vt 1.0000 1.0000 0.0000
vt 0.0000 1.0000 0.0000
vt 0.0000 0.0000 0.0000
# 4 texture coords

o Box013
g Box013
usemtl wire_135059008
s 2
f 33/17/33 34/18/34 35/19/35 36/20/36 
s 4
f 37/20/37 38/17/38 39/18/39 40/19/40 
s 8
f 33/20/33 36/17/36 38/18/38 37/19/37 
s 16
f 36/20/36 35/17/35 39/18/39 38/19/38 
s 32
f 35/20/35 34/17/34 40/18/40 39/19/39 
s 64
f 34/20/34 33/17/33 37/18/37 40/19/40 
# 6 polygons

#
# object Box014
#

v  -20.9812 0.0000 -32.4570
v  -20.9812 0.0000 -35.3275
v  19.2385 0.0000 -35.3275
v  19.2385 0.0000 -32.4570
v  -20.9812 1.9368 -32.4570
v  19.2385 1.9368 -32.4570
v  19.2385 1.9368 -35.3275
v  -20.9812 1.9368 -35.3275
# 8 vertices

vn -0.5774 -0.5774 0.5774
vn -0.5774 -0.5774 -0.5774
vn 0.5774 -0.5774 -0.5774
vn 0.5774 -0.5774 0.5774
vn -0.5774 0.5774 0.5774
vn 0.5774 0.5774 0.5774
vn 0.5774 0.5774 -0.5774
vn -0.5774 0.5774 -0.5774
# 8 vertex normals

vt 1.0000 0.0000 0.0000
vt 1.0000 1.0000 0.0000
vt 0.0000 1.0000 0.0000
vt 0.0000 0.0000 0.0000
# 4 texture coords

o Box014
g Box014
usemtl wire_135059008
s 2
f 41/21/41 42/22/42 43/23/43 44/24/44 
s 4
f 45/24/45 46/21/46 47/22/47 48/23/48 
s 8
f 41/24/41 44/21/44 46/22/46 45/23/45 
s 16
f 44/24/44 43/21/43 47/22/47 46/23/46 
s 32
f 43/24/43 42/21/42 48/22/48 47/23/47 
s 64
f 42/24/42 41/21/41 45/22/45 48/23/48 
# 6 polygons

#
# object Box015
#

v  -20.9812 0.0000 -44.6090
v  -20.9812 0.0000 -47.4796
v  19.2385 0.0000 -47.4796
v  19.2385 0.0000 -44.6090
v  -20.9812 1.9368 -44.6090
v  19.2385 1.9368 -44.6090
v  19.2385 1.9368 -47.4796
v  -20.9812 1.9368 -47.4796
# 8 vertices

vn -0.5774 -0.5774 0.5774
vn -0.5774 -0.5774 -0.5774
vn 0.5774 -0.5774 -0.5774
vn 0.5774 -0.5774 0.5774
vn -0.5774 0.5774 0.5774
vn 0.5774 0.5774 0.5774
vn 0.5774 0.5774 -0.5774
vn -0.5774 0.5774 -0.5774
# 8 vertex normals

vt 1.0000 0.0000 0.0000
vt 1.0000 1.0000 0.0000
vt 0.0000 1.0000 0.0000
vt 0.0000 0.0000 0.0000
# 4 texture coords

o Box015
g Box015
usemtl wire_135059008
s 2
f 49/25/49 50/26/50 51/27/51 52/28/52 
s 4
f 53/28/53 54/25/54 55/26/55 56/27/56 
s 8
f 49/28/49 52/25/52 54/26/54 53/27/53 
s 16
f 52/28/52 51/25/51 55/26/55 54/27/54 
s 32
f 51/28/51 50/25/50 56/26/56 55/27/55 
s 64
f 50/28/50 49/25/49 53/26/53 56/27/56 
# 6 polygons

#
# object Box016
#

v  -20.9812 0.0000 -57.4890
v  -20.9812 0.0000 -60.3595
v  19.2385 0.0000 -60.3595
v  19.2385 0.0000 -57.4890
v  -20.9812 1.9368 -57.4890
v  19.2385 1.9368 -57.4890
v  19.2385 1.9368 -60.3595
v  -20.9812 1.9368 -60.3595
# 8 vertices

vn -0.5774 -0.5774 0.5774
vn -0.5774 -0.5774 -0.5774
vn 0.5774 -0.5774 -0.5774
vn 0.5774 -0.5774 0.5774
vn -0.5774 0.5774 0.5774
vn 0.5774 0.5774 0.5774
vn 0.5774 0.5774 -0.5774
vn -0.5774 0.5774 -0.5774
# 8 vertex normals

vt 1.0000 0.0000 0.0000
vt 1.0000 1.0000 0.0000
vt 0.0000 1.0000 0.0000
vt 0.0000 0.0000 0.0000
# 4 texture coords

o Box016
g Box016
usemtl wire_135059008
s 2
f 57/29/57 58/30/58 59/31/59 60/32/60 
s 4
f 61/32/61 62/29/62 63/30/63 64/31/64 
s 8
f 57/32/57 60/29/60 62/30/62 61/31/61 
s 16
f 60/32/60 59/29/59 63/30/63 62/31/62 
s 32
f 59/32/59 58/29/58 64/30/64 63/31/63 
s 64
f 58/32/58 57/29/57 61/30/61 64/31/64 
# 6 polygons

#
# object Box017
#

v  -20.9812 0.0000 -70.0312
v  -20.9812 0.0000 -72.9018
v  19.2385 0.0000 -72.9018
v  19.2385 0.0000 -70.0312
v  -20.9812 1.9368 -70.0312
v  19.2385 1.9368 -70.0312
v  19.2385 1.9368 -72.9018
v  -20.9812 1.9368 -72.9018
# 8 vertices

vn -0.5774 -0.5774 0.5774
vn -0.5774 -0.5774 -0.5774
vn 0.5774 -0.5774 -0.5774
vn 0.5774 -0.5774 0.5774
vn -0.5774 0.5774 0.5774
vn 0.5774 0.5774 0.5774
vn 0.5774 0.5774 -0.5774
vn -0.5774 0.5774 -0.5774
# 8 vertex normals

vt 1.0000 0.0000 0.0000
vt 1.0000 1.0000 0.0000
vt 0.0000 1.0000 0.0000
vt 0.0000 0.0000 0.0000
# 4 texture coords

o Box017
g Box017
usemtl wire_135059008
s 2
f 65/33/65 66/34/66 67/35/67 68/36/68 
s 4
f 69/36/69 70/33/70 71/34/71 72/35/72 
s 8
f 65/36/65 68/33/68 70/34/70 69/35/69 
s 16
f 68/36/68 67/33/67 71/34/71 70/35/70 
s 32
f 67/36/67 66/33/66 72/34/72 71/35/71 
s 64
f 66/36/66 65/33/65 69/34/69 72/35/72 
# 6 polygons

#
# object Box018
#

v  -20.9812 0.0000 17.6073
v  -20.9812 0.0000 14.7367
v  19.2385 0.0000 14.7367
v  19.2385 0.0000 17.6073
v  -20.9812 1.9368 17.6073
v  19.2385 1.9368 17.6073
v  19.2385 1.9368 14.7367
v  -20.9812 1.9368 14.7367
# 8 vertices

vn -0.5774 -0.5774 0.5774
vn -0.5774 -0.5774 -0.5774
vn 0.5774 -0.5774 -0.5774
vn 0.5774 -0.5774 0.5774
vn -0.5774 0.5774 0.5774
vn 0.5774 0.5774 0.5774
vn 0.5774 0.5774 -0.5774
vn -0.5774 0.5774 -0.5774
# 8 vertex normals

vt 1.0000 0.0000 0.0000
vt 1.0000 1.0000 0.0000
vt 0.0000 1.0000 0.0000
vt 0.0000 0.0000 0.0000
# 4 texture coords

o Box018
g Box018
usemtl wire_135059008
s 2
f 73/37/73 74/38/74 75/39/75 76/40/76 
s 4
f 77/40/77 78/37/78 79/38/79 80/39/80 
s 8
f 73/40/73 76/37/76 78/38/78 77/39/77 
s 16
f 76/40/76 75/37/75 79/38/79 78/39/78 
s 32
f 75/40/75 74/37/74 80/38/80 79/39/79 
s 64
f 74/40/74 73/37/73 77/38/77 80/39/80 
# 6 polygons

#
# object Box019
#

v  -20.9812 0.0000 29.9536
v  -20.9812 0.0000 27.0830
v  19.2385 0.0000 27.0830
v  19.2385 0.0000 29.9536
v  -20.9812 1.9368 29.9536
v  19.2385 1.9368 29.9536
v  19.2385 1.9368 27.0830
v  -20.9812 1.9368 27.0830
# 8 vertices

vn -0.5774 -0.5774 0.5774
vn -0.5774 -0.5774 -0.5774
vn 0.5774 -0.5774 -0.5774
vn 0.5774 -0.5774 0.5774
vn -0.5774 0.5774 0.5774
vn 0.5774 0.5774 0.5774
vn 0.5774 0.5774 -0.5774
vn -0.5774 0.5774 -0.5774
# 8 vertex normals

vt 1.0000 0.0000 0.0000
vt 1.0000 1.0000 0.0000
vt 0.0000 1.0000 0.0000
vt 0.0000 0.0000 0.0000
# 4 texture coords

o Box019
g Box019
usemtl wire_135059008
s 2
f 81/41/81 82/42/82 83/43/83 84/44/84 
s 4
f 85/44/85 86/41/86 87/42/87 88/43/88 
s 8
f 81/44/81 84/41/84 86/42/86 85/43/85 
s 16
f 84/44/84 83/41/83 87/42/87 86/43/86 
s 32
f 83/44/83 82/41/82 88/42/88 87/43/87 
s 64
f 82/44/82 81/41/81 85/42/85 88/43/88 
# 6 polygons

#
# object Box020
#

v  -20.9812 0.0000 41.6412
v  -20.9812 0.0000 38.7706
v  19.2385 0.0000 38.7706
v  19.2385 0.0000 41.6412
v  -20.9812 1.9368 41.6412
v  19.2385 1.9368 41.6412
v  19.2385 1.9368 38.7706
v  -20.9812 1.9368 38.7706
# 8 vertices

vn -0.5774 -0.5774 0.5774
vn -0.5774 -0.5774 -0.5774
vn 0.5774 -0.5774 -0.5774
vn 0.5774 -0.5774 0.5774
vn -0.5774 0.5774 0.5774
vn 0.5774 0.5774 0.5774
vn 0.5774 0.5774 -0.5774
vn -0.5774 0.5774 -0.5774
# 8 vertex normals

vt 1.0000 0.0000 0.0000
vt 1.0000 1.0000 0.0000
vt 0.0000 1.0000 0.0000
vt 0.0000 0.0000 0.0000
# 4 texture coords

o Box020
g Box020
usemtl wire_135059008
s 2
f 89/45/89 90/46/90 91/47/91 92/48/92 
s 4
f 93/48/93 94/45/94 95/46/95 96/47/96 
s 8
f 89/48/89 92/45/92 94/46/94 93/47/93 
s 16
f 92/48/92 91/45/91 95/46/95 94/47/94 
s 32
f 91/48/91 90/45/90 96/46/96 95/47/95 
s 64
f 90/48/90 89/45/89 93/46/93 96/47/96 
# 6 polygons

#
# object Box021
#

v  -20.9812 0.0000 54.9133
v  -20.9812 0.0000 52.0428
v  19.2385 0.0000 52.0428
v  19.2385 0.0000 54.9133
v  -20.9812 1.9368 54.9133
v  19.2385 1.9368 54.9133
v  19.2385 1.9368 52.0428
v  -20.9812 1.9368 52.0428
# 8 vertices

vn -0.5774 -0.5774 0.5774
vn -0.5774 -0.5774 -0.5774
vn 0.5774 -0.5774 -0.5774
vn 0.5774 -0.5774 0.5774
vn -0.5774 0.5774 0.5774
vn 0.5774 0.5774 0.5774
vn 0.5774 0.5774 -0.5774
vn -0.5774 0.5774 -0.5774
# 8 vertex normals

vt 1.0000 0.0000 0.0000
vt 1.0000 1.0000 0.0000
vt 0.0000 1.0000 0.0000
vt 0.0000 0.0000 0.0000
# 4 texture coords

o Box021
g Box021
usemtl wire_135059008
s 2
f 97/49/97 98/50/98 99/51/99 100/52/100 
s 4
f 101/52/101 102/49/102 103/50/103 104/51/104 
s 8
f 97/52/97 100/49/100 102/50/102 101/51/101 
s 16
f 100/52/100 99/49/99 103/50/103 102/51/102 
s 32
f 99/52/99 98/49/98 104/50/104 103/51/103 
s 64
f 98/52/98 97/49/97 101/50/101 104/51/104 
# 6 polygons

#
# object Box022
#

v  -20.9812 0.0000 67.5233
v  -20.9812 0.0000 64.6527
v  19.2385 0.0000 64.6527
v  19.2385 0.0000 67.5233
v  -20.9812 1.9368 67.5233
v  19.2385 1.9368 67.5233
v  19.2385 1.9368 64.6527
v  -20.9812 1.9368 64.6527
# 8 vertices

vn -0.5774 -0.5774 0.5774
vn -0.5774 -0.5774 -0.5774
vn 0.5774 -0.5774 -0.5774
vn 0.5774 -0.5774 0.5774
vn -0.5774 0.5774 0.5774
vn 0.5774 0.5774 0.5774
vn 0.5774 0.5774 -0.5774
vn -0.5774 0.5774 -0.5774
# 8 vertex normals

vt 1.0000 0.0000 0.0000
vt 1.0000 1.0000 0.0000
vt 0.0000 1.0000 0.0000
vt 0.0000 0.0000 0.0000
# 4 texture coords

o Box022
g Box022
usemtl wire_135059008
s 2
f 105/53/105 106/54/106 107/55/107 108/56/108 
s 4
f 109/56/109 110/53/110 111/54/111 112/55/112 
s 8
f 105/56/105 108/53/108 110/54/110 109/55/109 
s 16
f 108/56/108 107/53/107 111/54/111 110/55/110 
s 32
f 107/56/107 106/53/106 112/54/112 111/55/111 
s 64
f 106/56/106 105/53/105 109/54/109 112/55/112 
# 6 polygons

#
# object Box023
#

v  -20.9812 0.0000 80.1291
v  -20.9812 0.0000 77.2585
v  19.2385 0.0000 77.2585
v  19.2385 0.0000 80.1291
v  -20.9812 1.9368 80.1291
v  19.2385 1.9368 80.1291
v  19.2385 1.9368 77.2585
v  -20.9812 1.9368 77.2585
# 8 vertices

vn -0.5774 -0.5774 0.5774
vn -0.5774 -0.5774 -0.5774
vn 0.5774 -0.5774 -0.5774
vn 0.5774 -0.5774 0.5774
vn -0.5774 0.5774 0.5774
vn 0.5774 0.5774 0.5774
vn 0.5774 0.5774 -0.5774
vn -0.5774 0.5774 -0.5774
# 8 vertex normals

vt 1.0000 0.0000 0.0000
vt 1.0000 1.0000 0.0000
vt 0.0000 1.0000 0.0000
vt 0.0000 0.0000 0.0000
# 4 texture coords

o Box023
g Box023
usemtl wire_135059008
s 2
f 113/57/113 114/58/114 115/59/115 116/60/116 
s 4
f 117/60/117 118/57/118 119/58/119 120/59/120 
s 8
f 113/60/113 116/57/116 118/58/118 117/59/117 
s 16
f 116/60/116 115/57/115 119/58/119 118/59/118 
s 32
f 115/60/115 114/57/114 120/58/120 119/59/119 
s 64
f 114/60/114 113/57/113 117/58/117 120/59/120 
# 6 polygons

#
# object Box024
#

v  -20.9812 0.0000 92.7307
v  -20.9812 0.0000 89.8602
v  19.2385 0.0000 89.8602
v  19.2385 0.0000 92.7307
v  -20.9812 1.9368 92.7307
v  19.2385 1.9368 92.7307
v  19.2385 1.9368 89.8602
v  -20.9812 1.9368 89.8602
# 8 vertices

vn -0.5774 -0.5774 0.5774
vn -0.5774 -0.5774 -0.5774
vn 0.5774 -0.5774 -0.5774
vn 0.5774 -0.5774 0.5774
vn -0.5774 0.5774 0.5774
vn 0.5774 0.5774 0.5774
vn 0.5774 0.5774 -0.5774
vn -0.5774 0.5774 -0.5774
# 8 vertex normals

vt 1.0000 0.0000 0.0000
vt 1.0000 1.0000 0.0000
vt 0.0000 1.0000 0.0000
vt 0.0000 0.0000 0.0000
# 4 texture coords

o Box024
g Box024
usemtl wire_135059008
s 2
f 121/61/121 122/62/122 123/63/123 124/64/124 
s 4
f 125/64/125 126/61/126 127/62/127 128/63/128 
s 8
f 121/64/121 124/61/124 126/62/126 125/63/125 
s 16
f 124/64/124 123/61/123 127/62/127 126/63/126 
s 32
f 123/64/123 122/61/122 128/62/128 127/63/127 
s 64
f 122/64/122 121/61/121 125/62/125 128/63/128 
# 6 polygons

