# 3ds Max Wavefront OBJ Exporter v0.97b - (c)2007 guruware
# File Created: 23.02.2019 20:28:53

mtllib Tracks- 120 degree bend Version.mtl

#
# object Box009
#

v  34.5112 1.5089 92.8471
v  14.3811 1.5089 77.4007
v  17.0792 1.5089 74.7025
v  36.4191 1.5089 89.5426
v  -1.0654 1.5089 57.2705
v  2.2391 1.5089 55.3626
v  -10.7754 1.5089 33.8284
v  -7.0897 1.5089 32.8408
v  -14.0873 1.5089 8.6720
v  -10.2716 1.5089 8.6720
v  -10.7754 1.5089 -16.4845
v  -7.0897 1.5089 -15.4969
v  -1.0654 1.5089 -39.9266
v  2.2391 1.5089 -38.0187
v  14.3811 1.5089 -60.0568
v  17.0792 1.5089 -57.3586
v  34.5112 1.5089 -75.5032
v  36.4191 1.5089 -72.1987
v  34.5112 4.6123 92.8471
v  36.4191 4.6123 89.5426
v  17.0792 4.6123 74.7025
v  14.3811 4.6123 77.4007
v  2.2391 4.6123 55.3626
v  -1.0654 4.6123 57.2705
v  -7.0897 4.6123 32.8408
v  -10.7754 4.6123 33.8284
v  -10.2716 4.6123 8.6720
v  -14.0873 4.6123 8.6720
v  -7.0897 4.6123 -15.4969
v  -10.7754 4.6123 -16.4845
v  2.2391 4.6123 -38.0187
v  -1.0654 4.6123 -39.9266
v  17.0792 4.6123 -57.3586
v  14.3811 4.6123 -60.0568
v  36.4191 4.6123 -72.1987
v  34.5112 4.6123 -75.5032
# 36 vertices

vn 0.0228 -0.6892 0.7243
vn -0.0481 -0.7032 0.7094
vn 0.0476 -0.7111 -0.7015
vn 0.8428 -0.5375 -0.0276
vn -0.0864 -0.6991 0.7098
vn 0.0844 -0.7153 -0.6937
vn -0.2249 -0.6745 0.7032
vn 0.2039 -0.7430 -0.6375
vn -0.8347 -0.5508 0.0000
vn 0.2529 -0.9675 0.0000
vn -0.2249 -0.6745 -0.7032
vn 0.2039 -0.7430 0.6375
vn -0.0864 -0.6991 -0.7098
vn 0.0844 -0.7153 0.6937
vn -0.0481 -0.7032 -0.7094
vn 0.0476 -0.7111 0.7015
vn 0.0227 -0.6892 -0.7242
vn 0.8429 -0.5374 0.0253
vn 0.0227 0.6892 0.7242
vn 0.8428 0.5375 -0.0276
vn 0.0476 0.7111 -0.7015
vn -0.0481 0.7032 0.7094
vn 0.0844 0.7153 -0.6937
vn -0.0864 0.6991 0.7098
vn 0.2039 0.7429 -0.6376
vn -0.2249 0.6745 0.7032
vn 0.2529 0.9675 -0.0000
vn -0.8347 0.5508 -0.0000
vn 0.2039 0.7430 0.6375
vn -0.2249 0.6745 -0.7032
vn 0.0844 0.7153 0.6937
vn -0.0864 0.6991 -0.7098
vn 0.0476 0.7111 0.7015
vn -0.0481 0.7032 -0.7094
vn 0.8428 0.5375 0.0276
vn 0.0227 0.6892 -0.7242
# 36 vertex normals

vt 1.0000 0.0000 0.0000
vt 1.0000 0.1250 0.0000
vt 0.0000 0.1250 0.0000
vt 0.0000 0.0000 0.0000
vt 1.0000 0.2500 0.0000
vt 0.0000 0.2500 0.0000
vt 1.0000 0.3750 0.0000
vt 0.0000 0.3750 0.0000
vt 1.0000 0.5000 0.0000
vt 0.0000 0.5000 0.0000
vt 1.0000 0.6250 0.0000
vt 0.0000 0.6250 0.0000
vt 1.0000 0.7500 0.0000
vt 0.0000 0.7500 0.0000
vt 1.0000 0.8750 0.0000
vt 0.0000 0.8750 0.0000
vt 1.0000 1.0000 0.0000
vt 0.0000 1.0000 0.0000
vt 0.1250 0.0000 0.0000
vt 0.1250 1.0000 0.0000
vt 0.2500 0.0000 0.0000
vt 0.2500 1.0000 0.0000
vt 0.3750 0.0000 0.0000
vt 0.3750 1.0000 0.0000
vt 0.5000 0.0000 0.0000
vt 0.5000 1.0000 0.0000
vt 0.6250 0.0000 0.0000
vt 0.6250 1.0000 0.0000
vt 0.7500 0.0000 0.0000
vt 0.7500 1.0000 0.0000
vt 0.8750 0.0000 0.0000
vt 0.8750 1.0000 0.0000
# 32 texture coords

o Box009
g Box009
usemtl wire_039039039
s 2
f 1/1/1 2/2/2 3/3/3 4/4/4 
f 2/2/2 5/5/5 6/6/6 3/3/3 
f 5/5/5 7/7/7 8/8/8 6/6/6 
f 7/7/7 9/9/9 10/10/10 8/8/8 
f 9/9/9 11/11/11 12/12/12 10/10/10 
f 11/11/11 13/13/13 14/14/14 12/12/12 
f 13/13/13 15/15/15 16/16/16 14/14/14 
f 15/15/15 17/17/17 18/18/18 16/16/16 
s 4
f 19/4/19 20/1/20 21/2/21 22/3/22 
f 22/3/22 21/2/21 23/5/23 24/6/24 
f 24/6/24 23/5/23 25/7/25 26/8/26 
f 26/8/26 25/7/25 27/9/27 28/10/28 
f 28/10/28 27/9/27 29/11/29 30/12/30 
f 30/12/30 29/11/29 31/13/31 32/14/32 
f 32/14/32 31/13/31 33/15/33 34/16/34 
f 34/16/34 33/15/33 35/17/35 36/18/36 
s 8
f 1/4/1 4/1/4 20/17/20 19/18/19 
s 16
f 4/4/4 3/19/3 21/20/21 20/18/20 
f 3/19/3 6/21/6 23/22/23 21/20/21 
f 6/21/6 8/23/8 25/24/25 23/22/23 
f 8/23/8 10/25/10 27/26/27 25/24/25 
f 10/25/10 12/27/12 29/28/29 27/26/27 
f 12/27/12 14/29/14 31/30/31 29/28/29 
f 14/29/14 16/31/16 33/32/33 31/30/31 
f 16/31/16 18/1/18 35/17/35 33/32/33 
s 32
f 18/4/18 17/1/17 36/17/36 35/18/35 
s 64
f 17/4/17 15/19/15 34/20/34 36/18/36 
f 15/19/15 13/21/13 32/22/32 34/20/34 
f 13/21/13 11/23/11 30/24/30 32/22/32 
f 11/23/11 9/25/9 28/26/28 30/24/30 
f 9/25/9 7/27/7 26/28/26 28/26/28 
f 7/27/7 5/29/5 24/30/24 26/28/26 
f 5/29/5 2/31/2 22/32/22 24/30/24 
f 2/31/2 1/1/1 19/17/19 22/32/22 
# 34 polygons

#
# object Box010
#

v  46.1809 1.5089 72.6345
v  30.8845 1.5089 60.8972
v  33.5827 1.5089 58.1990
v  48.0888 1.5089 69.3300
v  19.1472 1.5089 45.6008
v  22.4517 1.5089 43.6929
v  11.7688 1.5089 27.7877
v  15.4545 1.5089 26.8001
v  9.2521 1.5089 8.6720
v  13.0679 1.5089 8.6720
v  11.7688 1.5089 -10.4438
v  15.4545 1.5089 -9.4562
v  19.1472 1.5089 -28.2569
v  22.4517 1.5089 -26.3490
v  30.8845 1.5089 -43.5533
v  33.5827 1.5089 -40.8551
v  46.1809 1.5089 -55.2906
v  48.0888 1.5089 -51.9861
v  46.1809 4.6123 72.6345
v  48.0888 4.6123 69.3300
v  33.5827 4.6123 58.1990
v  30.8845 4.6123 60.8972
v  22.4517 4.6123 43.6929
v  19.1472 4.6123 45.6008
v  15.4545 4.6123 26.8001
v  11.7688 4.6123 27.7877
v  13.0679 4.6123 8.6720
v  9.2521 4.6123 8.6720
v  15.4545 4.6123 -9.4562
v  11.7688 4.6123 -10.4438
v  22.4517 4.6123 -26.3490
v  19.1472 4.6123 -28.2569
v  33.5827 4.6123 -40.8551
v  30.8845 4.6123 -43.5533
v  48.0888 4.6123 -51.9861
v  46.1809 4.6123 -55.2906
# 36 vertices

vn 0.0228 -0.6892 0.7242
vn -0.0481 -0.7032 0.7094
vn 0.0476 -0.7111 -0.7015
vn 0.8429 -0.5375 -0.0265
vn -0.0864 -0.6991 0.7098
vn 0.0844 -0.7153 -0.6937
vn -0.2249 -0.6745 0.7032
vn 0.2039 -0.7430 -0.6375
vn -0.8347 -0.5508 -0.0000
vn 0.2529 -0.9675 -0.0001
vn -0.2249 -0.6745 -0.7032
vn 0.2039 -0.7429 0.6376
vn -0.0864 -0.6991 -0.7098
vn 0.0844 -0.7153 0.6937
vn -0.0481 -0.7032 -0.7094
vn 0.0476 -0.7111 0.7015
vn 0.0227 -0.6892 -0.7242
vn 0.8429 -0.5374 0.0253
vn 0.0228 0.6892 0.7242
vn 0.8429 0.5375 -0.0265
vn 0.0476 0.7111 -0.7015
vn -0.0481 0.7032 0.7094
vn 0.0844 0.7152 -0.6938
vn -0.0864 0.6991 0.7098
vn 0.2039 0.7430 -0.6375
vn -0.2249 0.6745 0.7032
vn 0.2529 0.9675 0.0001
vn -0.8347 0.5508 -0.0000
vn 0.2039 0.7430 0.6375
vn -0.2249 0.6745 -0.7032
vn 0.0844 0.7153 0.6937
vn -0.0864 0.6991 -0.7098
vn 0.0476 0.7111 0.7015
vn -0.0481 0.7032 -0.7094
vn 0.8428 0.5375 0.0276
vn 0.0228 0.6892 -0.7243
# 36 vertex normals

vt 1.0000 0.0000 0.0000
vt 1.0000 0.1250 0.0000
vt 0.0000 0.1250 0.0000
vt 0.0000 0.0000 0.0000
vt 1.0000 0.2500 0.0000
vt 0.0000 0.2500 0.0000
vt 1.0000 0.3750 0.0000
vt 0.0000 0.3750 0.0000
vt 1.0000 0.5000 0.0000
vt 0.0000 0.5000 0.0000
vt 1.0000 0.6250 0.0000
vt 0.0000 0.6250 0.0000
vt 1.0000 0.7500 0.0000
vt 0.0000 0.7500 0.0000
vt 1.0000 0.8750 0.0000
vt 0.0000 0.8750 0.0000
vt 1.0000 1.0000 0.0000
vt 0.0000 1.0000 0.0000
vt 0.1250 0.0000 0.0000
vt 0.1250 1.0000 0.0000
vt 0.2500 0.0000 0.0000
vt 0.2500 1.0000 0.0000
vt 0.3750 0.0000 0.0000
vt 0.3750 1.0000 0.0000
vt 0.5000 0.0000 0.0000
vt 0.5000 1.0000 0.0000
vt 0.6250 0.0000 0.0000
vt 0.6250 1.0000 0.0000
vt 0.7500 0.0000 0.0000
vt 0.7500 1.0000 0.0000
vt 0.8750 0.0000 0.0000
vt 0.8750 1.0000 0.0000
# 32 texture coords

o Box010
g Box010
usemtl wire_039039039
s 2
f 37/33/37 38/34/38 39/35/39 40/36/40 
f 38/34/38 41/37/41 42/38/42 39/35/39 
f 41/37/41 43/39/43 44/40/44 42/38/42 
f 43/39/43 45/41/45 46/42/46 44/40/44 
f 45/41/45 47/43/47 48/44/48 46/42/46 
f 47/43/47 49/45/49 50/46/50 48/44/48 
f 49/45/49 51/47/51 52/48/52 50/46/50 
f 51/47/51 53/49/53 54/50/54 52/48/52 
s 4
f 55/36/55 56/33/56 57/34/57 58/35/58 
f 58/35/58 57/34/57 59/37/59 60/38/60 
f 60/38/60 59/37/59 61/39/61 62/40/62 
f 62/40/62 61/39/61 63/41/63 64/42/64 
f 64/42/64 63/41/63 65/43/65 66/44/66 
f 66/44/66 65/43/65 67/45/67 68/46/68 
f 68/46/68 67/45/67 69/47/69 70/48/70 
f 70/48/70 69/47/69 71/49/71 72/50/72 
s 8
f 37/36/37 40/33/40 56/49/56 55/50/55 
s 16
f 40/36/40 39/51/39 57/52/57 56/50/56 
f 39/51/39 42/53/42 59/54/59 57/52/57 
f 42/53/42 44/55/44 61/56/61 59/54/59 
f 44/55/44 46/57/46 63/58/63 61/56/61 
f 46/57/46 48/59/48 65/60/65 63/58/63 
f 48/59/48 50/61/50 67/62/67 65/60/65 
f 50/61/50 52/63/52 69/64/69 67/62/67 
f 52/63/52 54/33/54 71/49/71 69/64/69 
s 32
f 54/36/54 53/33/53 72/49/72 71/50/71 
s 64
f 53/36/53 51/51/51 70/52/70 72/50/72 
f 51/51/51 49/53/49 68/54/68 70/52/70 
f 49/53/49 47/55/47 66/56/66 68/54/68 
f 47/55/47 45/57/45 64/58/64 66/56/66 
f 45/57/45 43/59/43 62/60/62 64/58/64 
f 43/59/43 41/61/41 60/62/60 62/60/62 
f 41/61/41 38/63/38 58/64/58 60/62/60 
f 38/63/38 37/33/37 55/49/55 58/64/58 
# 34 polygons

#
# object Box011
#

v  -20.8817 0.0000 4.1218
v  -20.6655 0.0000 0.5706
v  19.4322 0.0000 3.7009
v  19.2995 0.0000 5.8799
v  -20.8817 1.9368 4.1218
v  19.2995 1.9368 5.8799
v  19.4322 1.9368 3.7009
v  -20.6655 1.9368 0.5706
# 8 vertices

vn -0.6068 -0.5790 0.5445
vn -0.5306 -0.5730 -0.6246
vn 0.6197 -0.5820 -0.5265
vn 0.5462 -0.5757 0.6085
vn -0.6067 0.5791 0.5446
vn 0.5462 0.5757 0.6085
vn 0.6197 0.5820 -0.5265
vn -0.5306 0.5730 -0.6246
# 8 vertex normals

vt 1.0000 0.0000 0.0000
vt 1.0000 1.0000 0.0000
vt 0.0000 1.0000 0.0000
vt 0.0000 0.0000 0.0000
# 4 texture coords

o Box011
g Box011
usemtl wire_135059008
s 2
f 73/65/73 74/66/74 75/67/75 76/68/76 
s 4
f 77/68/77 78/65/78 79/66/79 80/67/80 
s 8
f 73/68/73 76/65/76 78/66/78 77/67/77 
s 16
f 76/68/76 75/65/75 79/66/79 78/67/78 
s 32
f 75/68/75 74/65/74 80/66/80 79/67/79 
s 64
f 74/68/74 73/65/73 77/66/77 80/67/80 
# 6 polygons

#
# object Box012
#

v  -19.2149 -0.0000 -10.4228
v  -18.5025 -0.0000 -13.9085
v  20.7594 0.0000 -5.1837
v  20.3223 0.0000 -3.0448
v  -19.2149 1.9368 -10.4228
v  20.3223 1.9368 -3.0448
v  20.7594 1.9368 -5.1837
v  -18.5025 1.9368 -13.9085
# 8 vertices

vn -0.6789 -0.5864 0.4418
vn -0.4315 -0.5670 -0.7017
vn 0.6882 -0.5894 -0.4231
vn 0.4484 -0.5693 0.6891
vn -0.6789 0.5864 0.4418
vn 0.4484 0.5693 0.6891
vn 0.6882 0.5895 -0.4230
vn -0.4313 0.5669 -0.7018
# 8 vertex normals

vt 1.0000 0.0000 0.0000
vt 1.0000 1.0000 0.0000
vt 0.0000 1.0000 0.0000
vt 0.0000 0.0000 0.0000
# 4 texture coords

o Box012
g Box012
usemtl wire_135059008
s 2
f 81/69/81 82/70/82 83/71/83 84/72/84 
s 4
f 85/72/85 86/69/86 87/70/87 88/71/88 
s 8
f 81/72/81 84/69/84 86/70/86 85/71/85 
s 16
f 84/72/84 83/69/83 87/70/87 86/71/86 
s 32
f 83/72/83 82/69/82 88/70/88 87/71/87 
s 64
f 82/72/82 81/69/81 85/70/85 88/71/88 
# 6 polygons

#
# object Box013
#

v  -14.9723 0.0000 -26.1826
v  -13.7239 -0.0000 -29.5142
v  23.6917 0.0000 -14.7594
v  22.9256 0.0000 -12.7152
v  -14.9723 1.9368 -26.1826
v  22.9256 1.9368 -12.7152
v  23.6917 1.9368 -14.7594
v  -13.7239 1.9368 -29.5142
# 8 vertices

vn -0.7372 -0.5939 0.3222
vn -0.3138 -0.5619 -0.7654
vn 0.7424 -0.5968 -0.3044
vn 0.3307 -0.5638 0.7568
vn -0.7372 0.5939 0.3222
vn 0.3307 0.5638 0.7568
vn 0.7424 0.5968 -0.3044
vn -0.3138 0.5619 -0.7654
# 8 vertex normals

vt 1.0000 0.0000 0.0000
vt 1.0000 1.0000 0.0000
vt 0.0000 1.0000 0.0000
vt 0.0000 0.0000 0.0000
# 4 texture coords

o Box013
g Box013
usemtl wire_135059008
s 2
f 89/73/89 90/74/90 91/75/91 92/76/92 
s 4
f 93/76/93 94/73/94 95/74/95 96/75/96 
s 8
f 89/76/89 92/73/92 94/74/94 93/75/93 
s 16
f 92/76/92 91/73/91 95/74/95 94/75/94 
s 32
f 91/76/91 90/73/90 96/74/96 95/75/95 
s 64
f 90/76/90 89/73/89 93/74/93 96/75/96 
# 6 polygons

#
# object Box014
#

v  -8.7459 -0.0000 -40.2921
v  -7.0189 -0.0000 -43.4026
v  27.8059 0.0000 -23.2815
v  26.7462 0.0000 -21.3729
v  -8.7459 1.9368 -40.2921
v  26.7462 1.9368 -21.3729
v  27.8059 1.9368 -23.2815
v  -7.0189 1.9368 -43.4026
# 8 vertices

vn -0.7724 -0.5994 0.2100
vn -0.2015 -0.5588 -0.8045
vn 0.7745 -0.6021 -0.1940
vn 0.2173 -0.5603 0.7993
vn -0.7724 0.5994 0.2100
vn 0.2173 0.5603 0.7993
vn 0.7745 0.6021 -0.1940
vn -0.2015 0.5588 -0.8045
# 8 vertex normals

vt 1.0000 0.0000 0.0000
vt 1.0000 1.0000 0.0000
vt 0.0000 1.0000 0.0000
vt 0.0000 0.0000 0.0000
# 4 texture coords

o Box014
g Box014
usemtl wire_135059008
s 2
f 97/77/97 98/78/98 99/79/99 100/80/100 
s 4
f 101/80/101 102/77/102 103/78/103 104/79/104 
s 8
f 97/80/97 100/77/100 102/78/102 101/79/101 
s 16
f 100/80/100 99/77/99 103/78/103 102/79/102 
s 32
f 99/80/99 98/77/98 104/78/104 103/79/103 
s 64
f 98/80/98 97/77/97 101/78/101 104/79/104 
# 6 polygons

#
# object Box015
#

v  -0.7255 -0.0000 -53.0255
v  1.4319 -0.0000 -55.8545
v  32.9914 0.0000 -30.9221
v  31.6676 0.0000 -29.1863
v  -0.7255 1.9368 -53.0255
v  31.6676 1.9368 -29.1863
v  32.9914 1.9368 -30.9221
v  1.4319 1.9368 -55.8545
# 8 vertices

vn -0.7912 -0.6028 0.1032
vn -0.0931 -0.5571 -0.8252
vn 0.7911 -0.6052 -0.0892
vn 0.1073 -0.5584 0.8226
vn -0.7912 0.6028 0.1032
vn 0.1073 0.5584 0.8226
vn 0.7911 0.6052 -0.0892
vn -0.0931 0.5571 -0.8252
# 8 vertex normals

vt 1.0000 0.0000 0.0000
vt 1.0000 1.0000 0.0000
vt 0.0000 1.0000 0.0000
vt 0.0000 0.0000 0.0000
# 4 texture coords

o Box015
g Box015
usemtl wire_135059008
s 2
f 105/81/105 106/82/106 107/83/107 108/84/108 
s 4
f 109/84/109 110/81/110 111/82/111 112/83/112 
s 8
f 105/84/105 108/81/108 110/82/110 109/83/109 
s 16
f 108/84/108 107/81/107 111/82/111 110/83/110 
s 32
f 107/84/107 106/81/106 112/82/112 111/83/111 
s 64
f 106/84/106 105/81/105 109/82/109 112/83/112 
# 6 polygons

#
# object Box016
#

v  9.6838 -0.0000 -65.1086
v  12.2481 -0.0000 -67.5747
v  39.6283 0.0000 -38.1138
v  38.0549 0.0000 -36.6005
v  9.6838 1.9368 -65.1086
v  38.0549 1.9368 -36.6005
v  39.6283 1.9368 -38.1138
v  12.2481 1.9368 -67.5747
# 8 vertices

vn -0.7970 -0.6039 -0.0079
vn 0.0208 -0.5567 -0.8305
vn 0.7952 -0.6060 0.0199
vn -0.0082 -0.5578 0.8299
vn -0.7970 0.6039 -0.0079
vn -0.0082 0.5578 0.8299
vn 0.7952 0.6060 0.0199
vn 0.0208 0.5567 -0.8305
# 8 vertex normals

vt 1.0000 0.0000 0.0000
vt 1.0000 1.0000 0.0000
vt 0.0000 1.0000 0.0000
vt 0.0000 0.0000 0.0000
# 4 texture coords

o Box016
g Box016
usemtl wire_135059008
s 2
f 113/85/113 114/86/114 115/87/115 116/88/116 
s 4
f 117/88/117 118/85/118 119/86/119 120/87/120 
s 8
f 113/88/113 116/85/116 118/86/118 117/87/117 
s 16
f 116/88/116 115/85/115 119/86/119 118/87/118 
s 32
f 115/88/115 114/85/114 120/86/120 119/87/119 
s 64
f 114/88/114 113/85/113 117/86/117 120/87/120 
# 6 polygons

#
# object Box017
#

v  21.4791 0.0000 -75.2125
v  24.3818 -0.0000 -77.2697
v  47.0737 0.0000 -44.0627
v  45.2926 0.0000 -42.8004
v  21.4791 1.9368 -75.2125
v  45.2926 1.9368 -42.8004
v  47.0737 1.9368 -44.0627
v  24.3818 1.9368 -77.2697
# 8 vertices

vn -0.7896 -0.6025 -0.1163
vn 0.1320 -0.5576 -0.8196
vn 0.7866 -0.6043 0.1266
vn -0.1208 -0.5586 0.8206
vn -0.7896 0.6025 -0.1163
vn -0.1208 0.5586 0.8206
vn 0.7866 0.6043 0.1266
vn 0.1320 0.5576 -0.8196
# 8 vertex normals

vt 1.0000 0.0000 0.0000
vt 1.0000 1.0000 0.0000
vt 0.0000 1.0000 0.0000
vt 0.0000 0.0000 0.0000
# 4 texture coords

o Box017
g Box017
usemtl wire_135059008
s 2
f 121/89/121 122/90/122 123/91/123 124/92/124 
s 4
f 125/92/125 126/89/126 127/90/127 128/91/128 
s 8
f 121/92/121 124/89/124 126/90/126 125/91/125 
s 16
f 124/92/124 123/89/123 127/90/127 126/91/126 
s 32
f 123/92/123 122/89/122 128/90/128 127/91/127 
s 64
f 122/92/122 121/89/121 125/90/125 128/91/128 
# 6 polygons

#
# object Box018
#

v  -20.3926 0.0000 19.7261
v  -20.7099 0.0000 16.1825
v  19.4049 0.0000 13.2805
v  19.5997 0.0000 15.4549
v  -20.3926 1.9368 19.7261
v  19.5997 1.9368 15.4549
v  19.4049 1.9368 13.2805
v  -20.7099 1.9368 16.1825
# 8 vertices

vn -0.5114 -0.5716 0.6416
vn -0.6228 -0.5805 -0.5245
vn 0.5273 -0.5743 -0.6262
vn 0.6351 -0.5835 0.5061
vn -0.5114 0.5716 0.6416
vn 0.6351 0.5835 0.5061
vn 0.5273 0.5743 -0.6262
vn -0.6228 0.5805 -0.5245
# 8 vertex normals

vt 1.0000 0.0000 0.0000
vt 1.0000 1.0000 0.0000
vt 0.0000 1.0000 0.0000
vt 0.0000 0.0000 0.0000
# 4 texture coords

o Box018
g Box018
usemtl wire_135059008
s 2
f 129/93/129 130/94/130 131/95/131 132/96/132 
s 4
f 133/96/133 134/93/134 135/94/135 136/95/136 
s 8
f 129/96/129 132/93/132 134/94/134 133/95/133 
s 16
f 132/96/132 131/93/131 135/94/135 134/95/134 
s 32
f 131/96/131 130/93/130 136/94/136 135/95/135 
s 64
f 130/96/130 129/93/129 133/94/133 136/95/136 
# 6 polygons

#
# object Box019
#

v  -17.6569 0.0000 34.7682
v  -18.4899 0.0000 31.3093
v  20.7672 -0.0000 22.5625
v  21.2783 -0.0000 24.6849
v  -17.6569 1.9368 34.7682
v  21.2783 1.9368 24.6849
v  20.7672 1.9368 22.5625
v  -18.4899 1.9368 31.3093
# 8 vertices

vn -0.4058 -0.5656 0.7179
vn -0.6938 -0.5881 -0.4156
vn 0.4230 -0.5679 -0.7061
vn 0.7021 -0.5912 0.3968
vn -0.4058 0.5656 0.7179
vn 0.7021 0.5912 0.3968
vn 0.4228 0.5679 -0.7062
vn -0.6939 0.5882 -0.4155
# 8 vertex normals

vt 1.0000 0.0000 0.0000
vt 1.0000 1.0000 0.0000
vt 0.0000 1.0000 0.0000
vt 0.0000 0.0000 0.0000
# 4 texture coords

o Box019
g Box019
usemtl wire_135059008
s 2
f 137/97/137 138/98/138 139/99/139 140/100/140 
s 4
f 141/100/141 142/97/142 143/98/143 144/99/144 
s 8
f 137/100/137 140/97/140 142/98/142 141/99/141 
s 16
f 140/100/140 139/97/139 143/98/143 142/99/142 
s 32
f 139/100/139 138/97/138 144/98/144 143/99/143 
s 64
f 138/100/138 137/97/137 141/98/141 144/99/144 
# 6 polygons

#
# object Box020
#

v  -13.0626 0.0000 48.4943
v  -14.3673 0.0000 45.1844
v  23.2969 -0.0000 31.0764
v  24.0975 -0.0000 33.1073
v  -13.0626 1.9368 48.4943
v  24.0975 1.9368 33.1073
v  23.2969 1.9368 31.0764
v  -14.3673 1.9368 45.1844
# 8 vertices

vn -0.3010 -0.5614 0.7708
vn -0.7422 -0.5946 -0.3092
vn 0.3178 -0.5633 -0.7627
vn 0.7469 -0.5975 0.2916
vn -0.3010 0.5614 0.7708
vn 0.7469 0.5975 0.2916
vn 0.3178 0.5633 -0.7627
vn -0.7422 0.5946 -0.3092
# 8 vertex normals

vt 1.0000 0.0000 0.0000
vt 1.0000 1.0000 0.0000
vt 0.0000 1.0000 0.0000
vt 0.0000 0.0000 0.0000
# 4 texture coords

o Box020
g Box020
usemtl wire_135059008
s 2
f 145/101/145 146/102/146 147/103/147 148/104/148 
s 4
f 149/104/149 150/101/150 151/102/151 152/103/152 
s 8
f 145/104/145 148/101/148 150/102/150 149/103/149 
s 16
f 148/104/148 147/101/147 151/102/151 150/103/150 
s 32
f 147/104/147 146/101/146 152/102/152 151/103/151 
s 64
f 146/104/146 145/101/145 149/102/149 152/103/152 
# 6 polygons

#
# object Box021
#

v  -5.5968 0.0000 63.1337
v  -7.4062 0.0000 60.0704
v  27.5683 -0.0000 40.2105
v  28.6785 -0.0000 42.0902
v  -5.5968 1.9368 63.1337
v  28.6785 1.9368 42.0902
v  27.5683 1.9368 40.2105
v  -7.4062 1.9368 60.0704
# 8 vertices

vn -0.1813 -0.5583 0.8096
vn -0.7769 -0.6002 -0.1901
vn 0.1969 -0.5599 -0.8049
vn 0.7785 -0.6029 0.1744
vn -0.1815 0.5584 0.8095
vn 0.7786 0.6028 0.1745
vn 0.1969 0.5599 -0.8049
vn -0.7769 0.6002 -0.1901
# 8 vertex normals

vt 1.0000 0.0000 0.0000
vt 1.0000 1.0000 0.0000
vt 0.0000 1.0000 0.0000
vt 0.0000 0.0000 0.0000
# 4 texture coords

o Box021
g Box021
usemtl wire_135059008
s 2
f 153/105/153 154/106/154 155/107/155 156/108/156 
s 4
f 157/108/157 158/105/158 159/106/159 160/107/160 
s 8
f 153/108/153 156/105/156 158/106/158 157/107/157 
s 16
f 156/108/156 155/105/155 159/106/159 158/107/158 
s 32
f 155/108/155 154/105/154 160/106/160 159/107/159 
s 64
f 154/108/154 153/105/153 157/106/157 160/107/160 
# 6 polygons

#
# object Box022
#

v  3.5481 0.0000 75.7904
v  1.3009 0.0000 73.0322
v  32.9110 -0.0000 48.1641
v  34.2899 -0.0000 49.8565
v  3.5481 1.9368 75.7904
v  34.2899 1.9368 49.8565
v  32.9110 1.9368 48.1641
v  1.3009 1.9368 73.0322
# 8 vertices

vn -0.0692 -0.5569 0.8277
vn -0.7936 -0.6032 -0.0798
vn 0.0830 -0.5582 -0.8256
vn 0.7931 -0.6055 0.0663
vn -0.0692 0.5569 0.8277
vn 0.7931 0.6055 0.0663
vn 0.0830 0.5582 -0.8256
vn -0.7936 0.6032 -0.0798
# 8 vertex normals

vt 1.0000 0.0000 0.0000
vt 1.0000 1.0000 0.0000
vt 0.0000 1.0000 0.0000
vt 0.0000 0.0000 0.0000
# 4 texture coords

o Box022
g Box022
usemtl wire_135059008
s 2
f 161/109/161 162/110/162 163/111/163 164/112/164 
s 4
f 165/112/165 166/109/166 167/110/167 168/111/168 
s 8
f 161/112/161 164/109/164 166/110/166 165/111/165 
s 16
f 164/112/164 163/109/163 167/110/167 166/111/166 
s 32
f 163/112/163 162/109/162 168/110/168 167/111/167 
s 64
f 162/112/162 161/109/161 165/110/165 168/111/168 
# 6 polygons

#
# object Box023
#

v  14.4796 0.0000 86.9333
v  11.8452 0.0000 84.5422
v  39.3811 -0.0000 55.2267
v  40.9976 -0.0000 56.6939
v  14.4796 1.9368 86.9333
v  40.9976 1.9368 56.6939
v  39.3811 1.9368 55.2267
v  11.8452 1.9368 84.5422
# 8 vertices

vn 0.0424 -0.5567 0.8296
vn -0.7966 -0.6038 0.0288
vn -0.0300 -0.5578 -0.8294
vn 0.7945 -0.6059 -0.0405
vn 0.0421 0.5568 0.8296
vn 0.7946 0.6058 -0.0404
vn -0.0300 0.5578 -0.8294
vn -0.7966 0.6038 0.0288
# 8 vertex normals

vt 1.0000 0.0000 0.0000
vt 1.0000 1.0000 0.0000
vt 0.0000 1.0000 0.0000
vt 0.0000 0.0000 0.0000
# 4 texture coords

o Box023
g Box023
usemtl wire_135059008
s 2
f 169/113/169 170/114/170 171/115/171 172/116/172 
s 4
f 173/116/173 174/113/174 175/114/175 176/115/176 
s 8
f 169/116/169 172/113/172 174/114/174 173/115/173 
s 16
f 172/116/172 171/113/171 175/114/175 174/115/174 
s 32
f 171/116/171 170/113/170 176/114/176 175/115/175 
s 64
f 170/116/170 169/113/169 173/114/173 176/115/176 
# 6 polygons

#
# object Box024
#

v  26.9502 0.0000 96.3135
v  23.9879 0.0000 94.3431
v  46.8320 -0.0000 61.2406
v  48.6497 -0.0000 62.4497
v  26.9502 1.9368 96.3135
v  48.6497 1.9368 62.4497
v  46.8320 1.9368 61.2406
v  23.9879 1.9368 94.3431
# 8 vertices

vn 0.1541 -0.5579 0.8155
vn -0.7866 -0.6019 0.1380
vn -0.1434 -0.5589 -0.8167
vn 0.7833 -0.6037 -0.1480
vn 0.1541 0.5579 0.8155
vn 0.7834 0.6037 -0.1481
vn -0.1434 0.5589 -0.8167
vn -0.7866 0.6019 0.1380
# 8 vertex normals

vt 1.0000 0.0000 0.0000
vt 1.0000 1.0000 0.0000
vt 0.0000 1.0000 0.0000
vt 0.0000 0.0000 0.0000
# 4 texture coords

o Box024
g Box024
usemtl wire_135059008
s 2
f 177/117/177 178/118/178 179/119/179 180/120/180 
s 4
f 181/120/181 182/117/182 183/118/183 184/119/184 
s 8
f 177/120/177 180/117/180 182/118/182 181/119/181 
s 16
f 180/120/180 179/117/179 183/118/183 182/119/182 
s 32
f 179/120/179 178/117/178 184/118/184 183/119/183 
s 64
f 178/120/178 177/117/177 181/118/181 184/119/184 
# 6 polygons

