# 3ds Max Wavefront OBJ Exporter v0.97b - (c)2007 guruware
# File Created: 23.02.2019 13:03:15

mtllib Turning Indicator Version 1.mtl

#
# object Pyramid001
#

v  -65.1851 20.0421 3.3287
v  -20.0663 39.5282 -5.0366
v  -20.0663 0.5560 -5.0366
v  -20.0663 0.5560 11.6939
v  -20.0663 39.5282 11.6939
v  -20.0663 20.0421 3.3287
# 6 vertices

vn -1.0000 0.0000 -0.0000
vn 0.4213 0.6764 -0.6041
vn 0.4213 -0.6764 -0.6041
vn 0.4213 -0.6764 0.6041
vn 0.4213 0.6764 0.6041
vn 1.0000 -0.0000 0.0000
# 6 vertex normals

vt 0.5000 1.0000 0.0000
vt 0.0000 0.0000 0.0000
vt 1.0000 0.0000 0.0000
vt -0.6647 0.0000 0.0000
vt 0.3353 0.0000 0.0000
vt 0.0000 1.0000 0.0000
vt 0.5000 0.5000 0.0000
vt 1.0000 1.0000 0.0000
# 8 texture coords

o Pyramid001
g Pyramid001
usemtl wire_008008136
s 4
f 1/1/1 2/2/2 3/3/3 
s 2
f 1/1/1 3/4/3 4/5/4 
s 16
f 1/1/1 4/2/4 5/3/5 
s 32
f 1/1/1 5/4/5 2/5/2 
s 8
f 2/6/2 6/7/6 3/8/3 
f 3/8/3 6/7/6 4/3/4 
f 4/3/4 6/7/6 5/2/5 
f 5/2/5 6/7/6 2/6/2 
# 0 polygons - 8 triangles

#
# object Box001
#

v  -3.6454 0.0000 -4.3562
v  3.8295 0.0000 -4.3562
v  3.8295 0.0000 2.0443
v  -3.6454 0.0000 2.0443
v  -3.6454 46.4918 -4.3562
v  -3.6454 46.4918 2.0443
v  3.8295 46.4918 2.0443
v  3.8295 46.4918 -4.3562
# 8 vertices

vn -0.5774 -0.5774 -0.5774
vn 0.5774 -0.5774 -0.5774
vn 0.5774 -0.5774 0.5774
vn -0.5774 -0.5774 0.5774
vn -0.5774 0.5774 -0.5774
vn -0.5774 0.5774 0.5774
vn 0.5774 0.5774 0.5774
vn 0.5774 0.5774 -0.5774
# 8 vertex normals

vt 1.0000 0.0000 0.0000
vt 1.0000 1.0000 0.0000
vt 0.0000 1.0000 0.0000
vt 0.0000 0.0000 0.0000
# 4 texture coords

o Box001
g Box001
usemtl wire_135110008
s 2
f 7/9/7 8/10/8 9/11/9 10/12/10 
s 4
f 11/12/11 12/9/12 13/10/13 14/11/14 
s 8
f 7/12/7 10/9/10 12/10/12 11/11/11 
s 16
f 10/12/10 9/9/9 13/10/13 12/11/12 
s 32
f 9/12/9 8/9/8 14/10/14 13/11/13 
s 64
f 8/12/8 7/9/7 11/10/11 14/11/14 
# 6 polygons

#
# object Pyramid002
#

v  65.2706 20.0421 3.3287
v  20.1518 39.5282 11.6939
v  20.1518 0.5560 11.6939
v  20.1518 0.5560 -5.0366
v  20.1518 39.5282 -5.0366
v  20.1518 20.0421 3.3287
# 6 vertices

vn 1.0000 -0.0000 0.0000
vn -0.4213 0.6764 0.6041
vn -0.4213 -0.6764 0.6041
vn -0.4213 -0.6764 -0.6041
vn -0.4213 0.6764 -0.6041
vn -1.0000 0.0000 -0.0000
# 6 vertex normals

vt 0.5000 1.0000 0.0000
vt 0.0000 0.0000 0.0000
vt 1.0000 0.0000 0.0000
vt -0.6647 0.0000 0.0000
vt 0.3353 0.0000 0.0000
vt 0.0000 1.0000 0.0000
vt 0.5000 0.5000 0.0000
vt 1.0000 1.0000 0.0000
# 8 texture coords

o Pyramid002
g Pyramid002
usemtl wire_135006006
s 4
f 15/13/15 16/14/16 17/15/17 
s 2
f 15/13/15 17/16/17 18/17/18 
s 16
f 15/13/15 18/14/18 19/15/19 
s 32
f 15/13/15 19/16/19 16/17/16 
s 8
f 16/18/16 20/19/20 17/20/17 
f 17/20/17 20/19/20 18/15/18 
f 18/15/18 20/19/20 19/14/19 
f 19/14/19 20/19/20 16/18/16 
# 0 polygons - 8 triangles

#
# object Box002
#

v  -14.2166 14.6784 -4.3562
v  -6.7416 14.6784 -4.3562
v  -6.7416 14.6784 2.0443
v  -14.2166 14.6784 2.0443
v  -14.2166 25.3189 -4.3562
v  -14.2166 25.3189 2.0443
v  -6.7416 25.3189 2.0443
v  -6.7416 25.3189 -4.3562
# 8 vertices

vn -0.5774 -0.5774 -0.5774
vn 0.5774 -0.5774 -0.5774
vn 0.5774 -0.5774 0.5774
vn -0.5774 -0.5774 0.5774
vn -0.5774 0.5774 -0.5774
vn -0.5774 0.5774 0.5774
vn 0.5774 0.5774 0.5774
vn 0.5774 0.5774 -0.5774
# 8 vertex normals

vt 1.0000 0.0000 0.0000
vt 1.0000 1.0000 0.0000
vt 0.0000 1.0000 0.0000
vt 0.0000 0.0000 0.0000
# 4 texture coords

o Box002
g Box002
usemtl wire_135110008
s 2
f 21/21/21 22/22/22 23/23/23 24/24/24 
s 4
f 25/24/25 26/21/26 27/22/27 28/23/28 
s 8
f 21/24/21 24/21/24 26/22/26 25/23/25 
s 16
f 24/24/24 23/21/23 27/22/27 26/23/26 
s 32
f 23/24/23 22/21/22 28/22/28 27/23/27 
s 64
f 22/24/22 21/21/21 25/22/25 28/23/28 
# 6 polygons

#
# object Box003
#

v  7.1439 14.6784 -4.3562
v  14.6189 14.6784 -4.3562
v  14.6189 14.6784 2.0443
v  7.1439 14.6784 2.0443
v  7.1439 25.3189 -4.3562
v  7.1439 25.3189 2.0443
v  14.6189 25.3189 2.0443
v  14.6189 25.3189 -4.3562
# 8 vertices

vn -0.5774 -0.5774 -0.5774
vn 0.5774 -0.5774 -0.5774
vn 0.5774 -0.5774 0.5774
vn -0.5774 -0.5774 0.5774
vn -0.5774 0.5774 -0.5774
vn -0.5774 0.5774 0.5774
vn 0.5774 0.5774 0.5774
vn 0.5774 0.5774 -0.5774
# 8 vertex normals

vt 1.0000 0.0000 0.0000
vt 1.0000 1.0000 0.0000
vt 0.0000 1.0000 0.0000
vt 0.0000 0.0000 0.0000
# 4 texture coords

o Box003
g Box003
usemtl wire_135110008
s 2
f 29/25/29 30/26/30 31/27/31 32/28/32 
s 4
f 33/28/33 34/25/34 35/26/35 36/27/36 
s 8
f 29/28/29 32/25/32 34/26/34 33/27/33 
s 16
f 32/28/32 31/25/31 35/26/35 34/27/34 
s 32
f 31/28/31 30/25/30 36/26/36 35/27/35 
s 64
f 30/28/30 29/25/29 33/26/33 36/27/36 
# 6 polygons

